<?xml version="1.0" encoding="utf-8"?>
<!-- Generator: Adobe Illustrator 18.1.1, SVG Export Plug-In . SVG Version: 6.00 Build 0)  -->
<svg version="1.1" xmlns="http://www.w3.org/2000/svg" xmlns:xlink="http://www.w3.org/1999/xlink" x="0px" y="0px"
	 viewBox="0 0 631.5 391.5" enable-background="new 0 0 631.5 391.5" xml:space="preserve">
<g id="_x31__Donor">
	<g>
		<path fill="#226B82" d="M16.5,364h8.4v-21.9c0-1.1,0-2.2,0.1-3.4l-4.9,4.1c-0.3,0.3-0.6,0.4-1,0.6c-0.3,0.1-0.6,0.2-0.9,0.2
			c-0.5,0-1-0.1-1.4-0.3s-0.7-0.5-0.9-0.7l-2.9-3.9l13.5-11.4h7.6V364h7.2v6.7H16.5V364z"/>
		<path fill="#226B82" d="M98.1,348.9c0,3.1-0.5,6-1.6,8.7c-1.1,2.7-2.6,5-4.6,6.9c-2,1.9-4.3,3.5-7.1,4.5c-2.8,1.1-5.9,1.6-9.2,1.6
			H58.7v-43.5h16.9c3.4,0,6.5,0.5,9.2,1.6c2.8,1.1,5.1,2.6,7.1,4.5s3.5,4.2,4.6,6.9C97.6,342.9,98.1,345.8,98.1,348.9z M87.8,348.9
			c0-2.1-0.3-4.1-0.8-5.8c-0.6-1.7-1.4-3.2-2.4-4.4c-1-1.2-2.3-2.1-3.8-2.8c-1.5-0.6-3.2-1-5.2-1h-6.7v27.9h6.7c1.9,0,3.6-0.3,5.2-1
			c1.5-0.6,2.8-1.6,3.8-2.8c1-1.2,1.8-2.7,2.4-4.4S87.8,351.1,87.8,348.9z"/>
		<path fill="#226B82" d="M145.8,348.9c0,3.1-0.5,6.1-1.6,8.8c-1.1,2.7-2.6,5.1-4.6,7.1s-4.3,3.6-7.1,4.7c-2.8,1.1-5.9,1.7-9.2,1.7
			c-3.4,0-6.5-0.6-9.2-1.7c-2.8-1.1-5.2-2.7-7.1-4.7c-2-2-3.5-4.3-4.6-7.1c-1.1-2.7-1.6-5.6-1.6-8.8c0-3.1,0.5-6.1,1.6-8.8
			c1.1-2.7,2.6-5.1,4.6-7c2-2,4.4-3.5,7.1-4.7c2.8-1.1,5.9-1.7,9.2-1.7c3.4,0,6.5,0.6,9.2,1.7c2.8,1.1,5.1,2.7,7.1,4.7
			s3.5,4.3,4.6,7C145.3,342.9,145.8,345.8,145.8,348.9z M135.5,348.9c0-2.1-0.3-4.1-0.8-5.8c-0.6-1.7-1.4-3.2-2.4-4.4
			s-2.3-2.1-3.8-2.7c-1.5-0.6-3.2-1-5.2-1c-1.9,0-3.7,0.3-5.2,1c-1.5,0.6-2.8,1.6-3.8,2.7c-1,1.2-1.8,2.6-2.4,4.4
			c-0.6,1.7-0.8,3.7-0.8,5.8c0,2.2,0.3,4.1,0.8,5.8c0.6,1.7,1.4,3.2,2.4,4.4c1,1.2,2.3,2.1,3.8,2.7c1.5,0.6,3.3,0.9,5.2,0.9
			c1.9,0,3.6-0.3,5.2-0.9c1.5-0.6,2.8-1.5,3.8-2.7c1-1.2,1.8-2.6,2.4-4.4S135.5,351.1,135.5,348.9z"/>
		<path fill="#226B82" d="M157.1,327.3c0.3,0,0.6,0.1,0.8,0.2c0.2,0.1,0.5,0.3,0.7,0.5c0.2,0.2,0.5,0.5,0.7,0.8l20.6,26.1
			c-0.1-0.8-0.1-1.6-0.2-2.4c0-0.8-0.1-1.5-0.1-2.2v-23h8.9v43.5h-5.2c-0.8,0-1.4-0.1-2-0.4c-0.5-0.2-1.1-0.7-1.6-1.3l-20.5-25.9
			c0.1,0.8,0.1,1.5,0.1,2.2c0,0.7,0.1,1.4,0.1,2v23.3h-8.9v-43.5h5.3C156.4,327.2,156.8,327.2,157.1,327.3z"/>
		<path fill="#226B82" d="M238.7,348.9c0,3.1-0.5,6.1-1.6,8.8c-1.1,2.7-2.6,5.1-4.6,7.1s-4.3,3.6-7.1,4.7c-2.8,1.1-5.9,1.7-9.2,1.7
			c-3.4,0-6.5-0.6-9.2-1.7c-2.8-1.1-5.2-2.7-7.1-4.7c-2-2-3.5-4.3-4.6-7.1c-1.1-2.7-1.6-5.6-1.6-8.8c0-3.1,0.5-6.1,1.6-8.8
			c1.1-2.7,2.6-5.1,4.6-7c2-2,4.4-3.5,7.1-4.7c2.8-1.1,5.9-1.7,9.2-1.7c3.4,0,6.5,0.6,9.2,1.7c2.8,1.1,5.1,2.7,7.1,4.7
			s3.5,4.3,4.6,7C238.1,342.9,238.7,345.8,238.7,348.9z M228.3,348.9c0-2.1-0.3-4.1-0.8-5.8c-0.6-1.7-1.4-3.2-2.4-4.4
			s-2.3-2.1-3.8-2.7c-1.5-0.6-3.2-1-5.2-1c-1.9,0-3.7,0.3-5.2,1c-1.5,0.6-2.8,1.6-3.8,2.7c-1,1.2-1.8,2.6-2.4,4.4
			c-0.6,1.7-0.8,3.7-0.8,5.8c0,2.2,0.3,4.1,0.8,5.8c0.6,1.7,1.4,3.2,2.4,4.4c1,1.2,2.3,2.1,3.8,2.7c1.5,0.6,3.3,0.9,5.2,0.9
			c1.9,0,3.6-0.3,5.2-0.9c1.5-0.6,2.8-1.5,3.8-2.7c1-1.2,1.8-2.6,2.4-4.4S228.3,351.1,228.3,348.9z"/>
		<path fill="#226B82" d="M253.6,354.6v16.1h-10.1v-43.5h14.1c3.1,0,5.8,0.3,8,1c2.2,0.6,4,1.5,5.4,2.7s2.4,2.5,3.1,4.1
			c0.6,1.6,1,3.3,1,5.1c0,1.4-0.2,2.7-0.6,4s-0.9,2.4-1.7,3.5s-1.7,2-2.7,2.8c-1.1,0.8-2.3,1.5-3.7,2.1c0.7,0.3,1.3,0.8,1.9,1.3
			s1.1,1.1,1.5,1.8l9.2,15.1h-9.1c-1.7,0-2.9-0.6-3.6-1.9l-7.2-12.6c-0.3-0.6-0.7-1-1.1-1.2c-0.4-0.2-1-0.4-1.8-0.4H253.6z
			 M253.6,347.6h4.1c1.4,0,2.5-0.2,3.5-0.5c1-0.3,1.8-0.8,2.4-1.4c0.6-0.6,1.1-1.3,1.3-2.2c0.3-0.8,0.4-1.7,0.4-2.7
			c0-1.9-0.6-3.4-1.9-4.5c-1.2-1.1-3.2-1.6-5.8-1.6h-4.1V347.6z"/>
	</g>
</g>
<g id="Big_Donor">
	<path fill="#BF3C1F" d="M109.6,240.9c0,11.5-0.2,22.9,0.1,34.4c0.3,10.7,4.4,14.6,15.1,14.8c13.3,0.2,26.5,0.1,39.8,0
		c14.9,0,18.2-3.1,18.3-18c0.1-21.1,0.1-42.2,0-63.3c0-4.7,0.9-7.6,5.9-9.6c10.5-4.1,14.6-12.8,14.6-23.7c0-19,0.5-38-0.2-57
		c-0.2-6-2.4-12.6-5.7-17.6c-5.9-8.9-11.7-8.9-19.6-1.9c-18,15.9-44.9,15.9-62.8,0c-8-7.1-13.6-7.2-19.7,1.5
		c-3.3,4.6-5.6,10.9-5.8,16.5c-0.7,19.9-1,39.9,0.2,59.7c0.4,6.7,4.2,16.9,9.2,19c12.4,5.1,10.8,14,10.7,23.4
		C109.5,226.4,109.6,233.7,109.6,240.9z"/>
	<circle fill="#226B82" cx="146.2" cy="53.6" r="40.3"/>
</g>
<g id="Top_Row">
	<path fill="#BF3C1F" d="M349.3,114.2c0,5.1-0.1,10.1,0,15.2c0.1,4.7,2,6.5,6.7,6.5c5.9,0.1,11.7,0,17.6,0c6.6,0,8-1.4,8.1-7.9
		c0.1-9.3,0.1-18.7,0-28c0-2.1,0.4-3.4,2.6-4.2c4.6-1.8,6.5-5.7,6.5-10.5c0-8.4,0.2-16.8-0.1-25.2c-0.1-2.6-1-5.6-2.5-7.8
		c-2.6-3.9-5.2-3.9-8.7-0.8c-7.9,7-19.9,7-27.8,0c-3.5-3.1-6-3.2-8.7,0.7c-1.4,2-2.5,4.8-2.6,7.3c-0.3,8.8-0.5,17.6,0.1,26.4
		c0.2,3,1.9,7.5,4.1,8.4c5.5,2.3,4.8,6.2,4.7,10.3C349.2,107.8,349.2,111,349.3,114.2z"/>
	<circle fill="#FFFFFF" cx="365.4" cy="31.4" r="17.8"/>
	<path fill="#BF3C1F" d="M424.6,114.2c0,5.1-0.1,10.1,0,15.2c0.1,4.7,2,6.5,6.7,6.5c5.9,0.1,11.7,0,17.6,0c6.6,0,8-1.4,8.1-7.9
		c0.1-9.3,0.1-18.7,0-28c0-2.1,0.4-3.4,2.6-4.2c4.6-1.8,6.5-5.7,6.5-10.5c0-8.4,0.2-16.8-0.1-25.2c-0.1-2.6-1-5.6-2.5-7.8
		c-2.6-3.9-5.2-3.9-8.7-0.8c-7.9,7-19.9,7-27.8,0c-3.5-3.1-6-3.2-8.7,0.7c-1.4,2-2.5,4.8-2.6,7.3c-0.3,8.8-0.5,17.6,0.1,26.4
		c0.2,3,1.9,7.5,4.1,8.4c5.5,2.3,4.8,6.2,4.7,10.3C424.5,107.8,424.6,111,424.6,114.2z"/>
	<circle fill="#FFFFFF" cx="440.8" cy="31.4" r="17.8"/>
	<path fill="#BF3C1F" d="M499.9,114.2c0,5.1-0.1,10.1,0,15.2c0.1,4.7,2,6.5,6.7,6.5c5.9,0.1,11.7,0,17.6,0c6.6,0,8-1.4,8.1-7.9
		c0.1-9.3,0.1-18.7,0-28c0-2.1,0.4-3.4,2.6-4.2c4.6-1.8,6.5-5.7,6.5-10.5c0-8.4,0.2-16.8-0.1-25.2c-0.1-2.6-1-5.6-2.5-7.8
		c-2.6-3.9-5.2-3.9-8.7-0.8c-7.9,7-19.9,7-27.8,0c-3.5-3.1-6-3.2-8.7,0.7c-1.4,2-2.5,4.8-2.6,7.3c-0.3,8.8-0.5,17.6,0.1,26.4
		c0.2,3,1.9,7.5,4.1,8.4c5.5,2.3,4.8,6.2,4.7,10.3C499.9,107.8,499.9,111,499.9,114.2z"/>
	<circle fill="#FFFFFF" cx="516.1" cy="31.4" r="17.8"/>
	<path fill="#BF3C1F" d="M575.3,114.2c0,5.1-0.1,10.1,0,15.2c0.1,4.7,2,6.5,6.7,6.5c5.9,0.1,11.7,0,17.6,0c6.6,0,8-1.4,8.1-7.9
		c0.1-9.3,0.1-18.7,0-28c0-2.1,0.4-3.4,2.6-4.2c4.6-1.8,6.5-5.7,6.5-10.5c0-8.4,0.2-16.8-0.1-25.2c-0.1-2.6-1-5.6-2.5-7.8
		c-2.6-3.9-5.2-3.9-8.7-0.8c-7.9,7-19.9,7-27.8,0c-3.5-3.1-6-3.2-8.7,0.7c-1.4,2-2.5,4.8-2.6,7.3c-0.3,8.8-0.5,17.6,0.1,26.4
		c0.2,3,1.9,7.5,4.1,8.4c5.5,2.3,4.8,6.2,4.7,10.3C575.2,107.8,575.2,111,575.3,114.2z"/>
	<circle fill="#FFFFFF" cx="591.4" cy="31.4" r="17.8"/>
</g>
<g id="Bot_Row">
	<path fill="#BF3C1F" d="M349.3,359.2c0,5.1-0.1,10.1,0,15.2c0.1,4.7,2,6.5,6.7,6.5c5.9,0.1,11.7,0,17.6,0c6.6,0,8-1.4,8.1-7.9
		c0.1-9.3,0.1-18.7,0-28c0-2.1,0.4-3.4,2.6-4.2c4.6-1.8,6.5-5.7,6.5-10.5c0-8.4,0.2-16.8-0.1-25.2c-0.1-2.6-1-5.6-2.5-7.8
		c-2.6-3.9-5.2-3.9-8.7-0.8c-7.9,7-19.9,7-27.8,0c-3.5-3.1-6-3.2-8.7,0.7c-1.4,2-2.5,4.8-2.6,7.3c-0.3,8.8-0.5,17.6,0.1,26.4
		c0.2,3,1.9,7.5,4.1,8.4c5.5,2.3,4.8,6.2,4.7,10.3C349.2,352.8,349.2,356,349.3,359.2z"/>
	<circle fill="#FFFFFF" cx="365.4" cy="276.5" r="17.8"/>
	<path fill="#BF3C1F" d="M424.6,359.2c0,5.1-0.1,10.1,0,15.2c0.1,4.7,2,6.5,6.7,6.5c5.9,0.1,11.7,0,17.6,0c6.6,0,8-1.4,8.1-7.9
		c0.1-9.3,0.1-18.7,0-28c0-2.1,0.4-3.4,2.6-4.2c4.6-1.8,6.5-5.7,6.5-10.5c0-8.4,0.2-16.8-0.1-25.2c-0.1-2.6-1-5.6-2.5-7.8
		c-2.6-3.9-5.2-3.9-8.7-0.8c-7.9,7-19.9,7-27.8,0c-3.5-3.1-6-3.2-8.7,0.7c-1.4,2-2.5,4.8-2.6,7.3c-0.3,8.8-0.5,17.6,0.1,26.4
		c0.2,3,1.9,7.5,4.1,8.4c5.5,2.3,4.8,6.2,4.7,10.3C424.5,352.8,424.6,356,424.6,359.2z"/>
	<circle fill="#FFFFFF" cx="440.8" cy="276.5" r="17.8"/>
	<path fill="#BF3C1F" d="M499.9,359.2c0,5.1-0.1,10.1,0,15.2c0.1,4.7,2,6.5,6.7,6.5c5.9,0.1,11.7,0,17.6,0c6.6,0,8-1.4,8.1-7.9
		c0.1-9.3,0.1-18.7,0-28c0-2.1,0.4-3.4,2.6-4.2c4.6-1.8,6.5-5.7,6.5-10.5c0-8.4,0.2-16.8-0.1-25.2c-0.1-2.6-1-5.6-2.5-7.8
		c-2.6-3.9-5.2-3.9-8.7-0.8c-7.9,7-19.9,7-27.8,0c-3.5-3.1-6-3.2-8.7,0.7c-1.4,2-2.5,4.8-2.6,7.3c-0.3,8.8-0.5,17.6,0.1,26.4
		c0.2,3,1.9,7.5,4.1,8.4c5.5,2.3,4.8,6.2,4.7,10.3C499.9,352.8,499.9,356,499.9,359.2z"/>
	<circle fill="#FFFFFF" cx="516.1" cy="276.5" r="17.8"/>
	<path fill="#BF3C1F" d="M575.3,359.2c0,5.1-0.1,10.1,0,15.2c0.1,4.7,2,6.5,6.7,6.5c5.9,0.1,11.7,0,17.6,0c6.6,0,8-1.4,8.1-7.9
		c0.1-9.3,0.1-18.7,0-28c0-2.1,0.4-3.4,2.6-4.2c4.6-1.8,6.5-5.7,6.5-10.5c0-8.4,0.2-16.8-0.1-25.2c-0.1-2.6-1-5.6-2.5-7.8
		c-2.6-3.9-5.2-3.9-8.7-0.8c-7.9,7-19.9,7-27.8,0c-3.5-3.1-6-3.2-8.7,0.7c-1.4,2-2.5,4.8-2.6,7.3c-0.3,8.8-0.5,17.6,0.1,26.4
		c0.2,3,1.9,7.5,4.1,8.4c5.5,2.3,4.8,6.2,4.7,10.3C575.2,352.8,575.2,356,575.3,359.2z"/>
	<circle fill="#FFFFFF" cx="591.4" cy="276.5" r="17.8"/>
</g>
<g id="_x38__Lives">
	<g>
		<g>
			<path fill="#FFFFFF" d="M372,231c-2.9,0-5.5-0.4-7.8-1.1s-4.4-1.8-6.1-3.2c-1.7-1.4-3-3.1-3.9-5.1c-0.9-2-1.4-4.2-1.4-6.6
				c0-1.5,0.2-2.8,0.5-4.1c0.3-1.3,0.9-2.5,1.6-3.6c0.7-1.1,1.7-2,2.8-2.9s2.5-1.5,4.2-2.1c-2.5-1.1-4.3-2.7-5.5-4.6
				c-1.2-2-1.8-4.3-1.8-7.1c0-2.1,0.4-4,1.3-5.8c0.9-1.8,2.1-3.3,3.6-4.6s3.4-2.3,5.5-3.1c2.1-0.8,4.5-1.1,7-1.1s4.9,0.4,7,1.1
				c2.1,0.8,4,1.8,5.5,3.1c1.6,1.3,2.8,2.9,3.6,4.6c0.9,1.8,1.3,3.7,1.3,5.8c0,2.8-0.6,5.1-1.8,7.1c-1.2,2-3,3.5-5.5,4.6
				c1.6,0.6,3,1.3,4.1,2.1s2.1,1.8,2.8,2.9c0.7,1.1,1.3,2.3,1.6,3.6s0.5,2.7,0.5,4.1c0,2.4-0.5,4.6-1.4,6.6c-0.9,2-2.2,3.7-3.9,5.1
				c-1.7,1.4-3.7,2.5-6.1,3.2C377.5,230.6,374.8,231,372,231z M372,222.3c1.3,0,2.4-0.2,3.3-0.6c0.9-0.4,1.7-0.9,2.3-1.6
				c0.6-0.7,1-1.5,1.3-2.4c0.3-0.9,0.4-1.9,0.4-3c0-1.2-0.1-2.2-0.4-3.2c-0.2-1-0.7-1.8-1.2-2.5c-0.6-0.7-1.3-1.2-2.3-1.6
				c-1-0.4-2.1-0.6-3.5-0.6s-2.6,0.2-3.5,0.6c-1,0.4-1.7,0.9-2.3,1.6c-0.6,0.7-1,1.5-1.2,2.5c-0.2,1-0.4,2-0.4,3.2
				c0,1.1,0.1,2.1,0.4,3c0.3,0.9,0.7,1.7,1.3,2.4c0.6,0.7,1.4,1.2,2.3,1.6C369.6,222.1,370.7,222.3,372,222.3z M372,198.2
				c1.3,0,2.3-0.2,3.1-0.6s1.5-1,1.9-1.7c0.5-0.7,0.8-1.5,1-2.4c0.2-0.9,0.3-1.8,0.3-2.7c0-0.8-0.1-1.7-0.3-2.4
				c-0.2-0.8-0.6-1.5-1.1-2.1s-1.2-1.1-2-1.5c-0.8-0.4-1.8-0.6-2.9-0.6c-1.2,0-2.1,0.2-2.9,0.6c-0.8,0.4-1.4,0.9-1.9,1.5
				s-0.9,1.3-1.1,2.1c-0.2,0.8-0.3,1.6-0.3,2.4c0,0.9,0.1,1.9,0.3,2.7c0.2,0.9,0.5,1.7,1,2.4c0.5,0.7,1.1,1.2,1.9,1.7
				S370.7,198.2,372,198.2z"/>
			<path fill="#FFFFFF" d="M424.7,220.4h20v10h-32.5v-53.9h12.5V220.4z"/>
			<path fill="#FFFFFF" d="M464.3,230.4h-12.6v-53.9h12.6V230.4z"/>
			<path fill="#FFFFFF" d="M469.9,176.4h10.1c1.1,0,2,0.2,2.7,0.7c0.7,0.5,1.2,1.1,1.5,2l10.4,28.9c0.5,1.3,0.9,2.6,1.4,4.1
				c0.5,1.5,0.9,3,1.4,4.7c0.3-1.6,0.7-3.2,1.2-4.7c0.5-1.5,0.9-2.9,1.4-4.1l10.4-28.9c0.2-0.7,0.7-1.3,1.4-1.9
				c0.7-0.6,1.6-0.8,2.6-0.8h10.1l-21.6,53.9h-11.3L469.9,176.4z"/>
			<path fill="#FFFFFF" d="M563.6,176.4v9.6h-22.1v12.6h17v9.3h-17v12.8h22.1v9.6h-34.7v-53.9H563.6z"/>
			<path fill="#FFFFFF" d="M600.8,187.4c-0.4,0.6-0.8,1-1.2,1.3c-0.4,0.3-0.9,0.4-1.6,0.4c-0.6,0-1.2-0.2-1.8-0.5
				c-0.7-0.4-1.4-0.8-2.2-1.2c-0.8-0.4-1.8-0.8-2.8-1.2c-1.1-0.4-2.3-0.5-3.6-0.5c-2.3,0-4.1,0.5-5.2,1.5c-1.1,1-1.7,2.4-1.7,4.1
				c0,1.1,0.3,2,1,2.7c0.7,0.7,1.6,1.3,2.7,1.9s2.4,1,3.9,1.4s2.9,0.9,4.4,1.4c1.5,0.5,3,1.2,4.4,1.9c1.4,0.7,2.7,1.6,3.9,2.7
				c1.1,1.1,2,2.5,2.7,4.1s1,3.5,1,5.8c0,2.5-0.4,4.8-1.3,7c-0.9,2.2-2.1,4.1-3.8,5.7c-1.6,1.6-3.7,2.9-6.1,3.8s-5.1,1.4-8.2,1.4
				c-1.7,0-3.4-0.2-5.1-0.5c-1.7-0.3-3.4-0.8-5.1-1.5c-1.6-0.6-3.2-1.4-4.6-2.2c-1.4-0.9-2.7-1.8-3.7-2.9l3.7-5.8
				c0.3-0.4,0.7-0.8,1.1-1.1c0.5-0.3,1-0.4,1.6-0.4c0.7,0,1.5,0.2,2.2,0.7c0.8,0.5,1.6,1,2.6,1.6c0.9,0.6,2,1.1,3.3,1.6
				c1.2,0.5,2.7,0.7,4.4,0.7c2.3,0,4-0.5,5.3-1.5c1.3-1,1.9-2.6,1.9-4.8c0-1.3-0.3-2.3-1-3.1s-1.6-1.4-2.7-2c-1.1-0.5-2.4-1-3.8-1.4
				c-1.4-0.4-2.9-0.8-4.4-1.3s-3-1.1-4.4-1.8c-1.4-0.7-2.7-1.6-3.8-2.8c-1.1-1.1-2-2.6-2.7-4.3c-0.7-1.7-1-3.8-1-6.3
				c0-2,0.4-4,1.2-5.9c0.8-1.9,2-3.6,3.6-5.1c1.6-1.5,3.5-2.7,5.8-3.6c2.3-0.9,4.9-1.4,7.9-1.4c1.7,0,3.3,0.1,4.8,0.4
				c1.6,0.3,3.1,0.6,4.5,1.1c1.4,0.5,2.7,1.1,3.9,1.8s2.3,1.5,3.3,2.4L600.8,187.4z"/>
		</g>
	</g>
</g>
</svg>
