<?xml version="1.0" encoding="utf-8"?>
<!-- Generator: Adobe Illustrator 18.1.1, SVG Export Plug-In . SVG Version: 6.00 Build 0)  -->
<svg version="1.1" xmlns="http://www.w3.org/2000/svg" xmlns:xlink="http://www.w3.org/1999/xlink" x="0px" y="0px"
	 viewBox="0 0 344 348" enable-background="new 0 0 344 348" xml:space="preserve">
<g id="ring">
	<circle fill="none" stroke="#2F575F" stroke-width="15" stroke-miterlimit="10" cx="171" cy="175" r="158"/>
</g>
<g id="_x34_0percent">
	<g>
		<path fill="#FFFFFF" d="M120.8,143.2h7.8v9c0,0.8-0.3,1.5-0.8,2.1c-0.5,0.6-1.3,0.9-2.3,0.9h-4.7v17.4h-14v-17.4H76.4
			c-1,0-1.9-0.3-2.7-0.9c-0.8-0.6-1.3-1.4-1.5-2.3l-1.7-7.9l35-47h15.4V143.2z M106.8,123.5c0-1.2,0-2.5,0.1-3.9
			c0.1-1.4,0.2-2.8,0.4-4.3l-20,28h19.5V123.5z"/>
		<path fill="#FFFFFF" d="M188.5,134.7c0,6.6-0.7,12.3-2.1,17.2c-1.4,4.8-3.4,8.9-5.9,12c-2.5,3.2-5.5,5.6-8.9,7.1
			c-3.4,1.6-7.2,2.3-11.2,2.3c-4,0-7.7-0.8-11.1-2.3c-3.4-1.6-6.4-3.9-8.8-7.1c-2.5-3.2-4.4-7.2-5.8-12c-1.4-4.8-2.1-10.6-2.1-17.2
			c0-6.6,0.7-12.3,2.1-17.2c1.4-4.8,3.3-8.9,5.8-12c2.5-3.2,5.4-5.5,8.8-7.1c3.4-1.5,7.1-2.3,11.1-2.3c4,0,7.7,0.8,11.2,2.3
			c3.4,1.5,6.4,3.9,8.9,7.1c2.5,3.2,4.5,7.2,5.9,12C187.7,122.4,188.5,128.1,188.5,134.7z M171.8,134.7c0-5.2-0.3-9.5-1-12.8
			c-0.7-3.3-1.5-6-2.6-7.9c-1.1-1.9-2.3-3.2-3.7-3.9c-1.4-0.7-2.8-1.1-4.2-1.1c-1.4,0-2.8,0.4-4.2,1.1c-1.4,0.7-2.6,2-3.6,3.9
			c-1.1,1.9-1.9,4.5-2.5,7.9c-0.6,3.3-1,7.6-1,12.8c0,5.3,0.3,9.5,1,12.9c0.6,3.3,1.5,5.9,2.5,7.9c1.1,1.9,2.3,3.2,3.6,3.9
			c1.4,0.7,2.8,1.1,4.2,1.1c1.4,0,2.8-0.4,4.2-1.1c1.4-0.7,2.6-2,3.7-3.9c1.1-1.9,2-4.5,2.6-7.9C171.5,144.3,171.8,140,171.8,134.7z
			"/>
		<path fill="#FFFFFF" d="M229.3,115.3c0,2.8-0.5,5.3-1.5,7.6s-2.3,4.2-4,5.9c-1.7,1.6-3.6,2.9-5.8,3.8c-2.2,0.9-4.5,1.3-6.9,1.3
			c-2.6,0-5-0.4-7.2-1.3c-2.2-0.9-4.1-2.2-5.7-3.8c-1.6-1.6-2.9-3.6-3.8-5.9c-0.9-2.3-1.3-4.8-1.3-7.6c0-2.9,0.4-5.5,1.3-7.8
			c0.9-2.3,2.2-4.3,3.8-6s3.5-2.9,5.7-3.9c2.2-0.9,4.6-1.4,7.2-1.4c2.6,0,5.1,0.5,7.3,1.4c2.2,0.9,4.2,2.2,5.8,3.9s2.9,3.7,3.8,6
			C228.9,109.8,229.3,112.4,229.3,115.3z M253.1,99.3c0.5-0.6,1.2-1.1,1.9-1.6c0.8-0.5,1.8-0.8,3.2-0.8h11.7l-57,73.3
			c-0.5,0.7-1.2,1.2-1.9,1.6c-0.8,0.4-1.7,0.6-2.8,0.6h-12L253.1,99.3z M217,115.3c0-1.8-0.1-3.2-0.4-4.4c-0.3-1.2-0.7-2.1-1.2-2.8
			c-0.5-0.7-1.1-1.2-1.8-1.5c-0.7-0.3-1.5-0.4-2.3-0.4s-1.6,0.1-2.3,0.4c-0.7,0.3-1.3,0.8-1.8,1.5c-0.5,0.7-0.9,1.6-1.1,2.8
			c-0.3,1.2-0.4,2.6-0.4,4.4c0,1.7,0.1,3,0.4,4.2c0.3,1.1,0.7,2,1.1,2.6c0.5,0.7,1.1,1.1,1.8,1.4c0.7,0.3,1.5,0.4,2.3,0.4
			s1.6-0.1,2.3-0.4c0.7-0.3,1.3-0.7,1.8-1.4c0.5-0.7,0.9-1.5,1.2-2.6C216.8,118.3,217,116.9,217,115.3z M272.8,154.8
			c0,2.8-0.5,5.3-1.5,7.6c-1,2.3-2.3,4.3-4,5.9c-1.7,1.6-3.6,2.9-5.8,3.8c-2.2,0.9-4.5,1.3-6.9,1.3c-2.6,0-5-0.5-7.2-1.3
			c-2.2-0.9-4.1-2.2-5.7-3.8c-1.6-1.6-2.9-3.6-3.8-5.9c-0.9-2.3-1.3-4.8-1.3-7.6c0-2.9,0.4-5.5,1.3-7.8c0.9-2.3,2.2-4.3,3.8-6
			s3.5-2.9,5.7-3.9c2.2-0.9,4.6-1.4,7.2-1.4c2.6,0,5.1,0.5,7.3,1.4c2.2,0.9,4.2,2.2,5.8,3.9s2.9,3.7,3.8,6
			C272.4,149.3,272.8,151.9,272.8,154.8z M260.5,154.8c0-1.7-0.1-3.2-0.4-4.3c-0.3-1.2-0.7-2.1-1.2-2.8c-0.5-0.7-1.1-1.2-1.8-1.5
			c-0.7-0.3-1.5-0.4-2.3-0.4s-1.6,0.1-2.3,0.4c-0.7,0.3-1.3,0.8-1.8,1.5c-0.5,0.7-0.9,1.6-1.1,2.8c-0.3,1.2-0.4,2.6-0.4,4.3
			c0,1.7,0.1,3,0.4,4.2c0.3,1.1,0.7,2,1.1,2.6c0.5,0.7,1.1,1.1,1.8,1.4c0.7,0.3,1.5,0.4,2.3,0.4s1.6-0.1,2.3-0.4
			c0.7-0.3,1.3-0.7,1.8-1.4c0.5-0.7,0.9-1.5,1.2-2.6C260.3,157.8,260.5,156.5,260.5,154.8z"/>
	</g>
</g>
<g id="african_americans">
	<g>
		<path fill="#FFFFFF" d="M63,218.2c0.6-1.3,1.4-2.4,2.6-3.2c1.2-0.9,2.6-1.3,4.2-1.3c1.3,0,2.3,0.3,2.9,1s1,1.6,1,2.8
			c0,1.2-0.3,2.5-0.9,3.8c-0.6,1.3-1.5,2.4-2.6,3.2s-2.6,1.3-4.2,1.3c-1.3,0-2.3-0.3-2.9-1c-0.7-0.6-1-1.6-1-2.8
			C62.1,220.8,62.4,219.5,63,218.2z M68.1,215.8c-0.6,1.1-1.2,2.5-1.7,4c-0.5,1.6-0.7,3-0.7,4.3c0,0.5,0,0.8,0.1,1
			c0.1,0.2,0.2,0.3,0.3,0.3c0.4,0,0.9-0.5,1.5-1.6s1.2-2.4,1.6-3.9s0.7-3,0.7-4.4c0-0.5,0-0.9-0.1-1c-0.1-0.2-0.2-0.3-0.3-0.3
			C69.3,214.1,68.8,214.7,68.1,215.8z"/>
		<path fill="#FFFFFF" d="M80,209.1c0.9-0.7,2-1,3.4-1c0.7,0,1.3,0.1,1.9,0.3c0.5,0.2,0.9,0.5,1.2,0.9c0.3,0.4,0.4,0.8,0.4,1.3
			c0,0.4-0.1,0.7-0.3,1c-0.2,0.3-0.5,0.6-0.9,0.8c-0.4,0.2-0.8,0.3-1.2,0.3c-0.5,0-1-0.1-1.3-0.4s-0.5-0.6-0.5-1.1
			c0-0.6,0.2-1.1,0.5-1.6c0.4-0.5,0.8-0.8,1.4-1.1c-0.2-0.1-0.4-0.1-0.6-0.1c-0.4,0-0.8,0.1-1.1,0.4c-0.4,0.4-0.8,1.1-1.1,2.2
			l-0.8,2.9h2.2l-0.1,0.4H81l-4,14.8c-1.5,0-2.8,0.1-4,0.3l4.1-15.1h-1.7l0.1-0.4h1.7C77.9,211.7,78.8,210,80,209.1z"/>
		<path fill="#FFFFFF" d="M100.6,224.7c0.2,0.2,0.4,0.3,0.7,0.4l-0.1,0.4c-0.9,0-2.1-0.1-3.7-0.1c-1.7,0-3,0-3.8,0.1l0.1-0.4
			c0.5,0,0.8-0.1,1.1-0.2c0.3-0.1,0.5-0.2,0.6-0.5c0.1-0.2,0.2-0.5,0.2-0.9c0-0.1,0-0.2,0-0.3l-0.2-3.6h-4.4l-2.2,3
			c-0.3,0.5-0.5,0.9-0.5,1.3c0,0.7,0.7,1.1,2,1.2l-0.1,0.4c-1.5,0-2.6-0.1-3.1-0.1c-0.5,0-1,0-1.5,0.1l0.1-0.4
			c0.3-0.1,0.6-0.2,0.8-0.4c0.2-0.2,0.5-0.4,0.8-0.8c0.3-0.3,0.7-0.8,1.1-1.5l9.1-12.7c0.2,0,0.5,0,0.9,0c0.3,0,0.6,0,0.8,0l0.9,14
			C100.2,224.1,100.3,224.5,100.6,224.7z M95.2,213.8l-3.7,5.3h4L95.2,213.8z"/>
		<path fill="#FFFFFF" d="M108.5,209.1c0.9-0.7,2-1,3.4-1c0.7,0,1.3,0.1,1.9,0.3c0.5,0.2,0.9,0.5,1.2,0.9c0.3,0.4,0.4,0.8,0.4,1.3
			c0,0.4-0.1,0.7-0.3,1c-0.2,0.3-0.5,0.6-0.9,0.8c-0.4,0.2-0.8,0.3-1.2,0.3c-0.5,0-1-0.1-1.3-0.4s-0.5-0.6-0.5-1.1
			c0-0.6,0.2-1.1,0.5-1.6c0.4-0.5,0.8-0.8,1.4-1.1c-0.2-0.1-0.4-0.1-0.6-0.1c-0.4,0-0.8,0.1-1.1,0.4c-0.4,0.4-0.8,1.1-1.1,2.2
			l-0.8,2.9h2.2l-0.1,0.4h-2.2l-4,14.8c-1.5,0-2.8,0.1-4,0.3l4.1-15.1h-1.7l0.1-0.4h1.7C106.3,211.7,107.2,210,108.5,209.1z"/>
		<path fill="#FFFFFF" d="M115,213.7c0.7,0,1.3,0.2,1.6,0.6c0.3,0.4,0.5,0.9,0.5,1.5c0,0.1,0,0.2,0,0.4c0.3-0.6,0.6-1.1,0.9-1.5
			c0.3-0.4,0.7-0.6,1-0.8c0.4-0.2,0.8-0.2,1.3-0.2c0.4,0,0.8,0.1,1.2,0.3c0.3,0.2,0.6,0.4,0.7,0.8c0.2,0.3,0.3,0.7,0.3,1.1
			c0,0.5-0.1,1-0.3,1.4c-0.2,0.4-0.5,0.8-0.9,1s-0.8,0.4-1.3,0.4c-0.5,0-1-0.1-1.2-0.4c-0.3-0.3-0.4-0.7-0.4-1.2
			c0-0.4,0.1-0.8,0.3-1.2c0.2-0.4,0.5-0.7,0.9-1c0.4-0.3,0.8-0.4,1.2-0.5c-0.2-0.1-0.3-0.1-0.3-0.1c-0.5,0-0.9,0.1-1.3,0.3
			c-0.4,0.2-0.8,0.7-1.3,1.4c-0.5,0.8-1,1.9-1.5,3.5l-1.6,6.2h-3.9l2.7-9.6c0.1-0.2,0.1-0.4,0.1-0.6c0-0.2-0.1-0.4-0.3-0.4
			c-0.2,0-0.4,0.1-0.6,0.3c-0.2,0.2-0.4,0.6-0.6,1.1l-0.5,1.4h-0.4l0.6-1.7C112.2,214.4,113.3,213.7,115,213.7z"/>
		<path fill="#FFFFFF" d="M124.6,215.3c0-0.3-0.1-0.4-0.3-0.4c-0.2,0-0.4,0.1-0.6,0.3c-0.2,0.2-0.4,0.6-0.6,1.1l-0.5,1.4h-0.4
			l0.6-1.7c0.6-1.5,1.7-2.3,3.3-2.3c0.8,0,1.4,0.2,1.8,0.6c0.4,0.4,0.6,0.9,0.6,1.5c0,0.4-0.1,0.7-0.2,1.1l-2.3,6.8
			c-0.1,0.2-0.1,0.4-0.1,0.5c0,0.3,0.1,0.4,0.4,0.4c0.4,0,0.8-0.5,1.2-1.4l0.5-1.2h0.4l-0.6,1.6c-0.5,1.5-1.6,2.3-3.2,2.3
			c-0.8,0-1.3-0.2-1.7-0.5c-0.4-0.4-0.6-0.9-0.6-1.6c0-0.5,0.1-1.1,0.3-1.7l2-6.1C124.6,215.6,124.6,215.5,124.6,215.3z
			 M126.2,208.7c0.5-0.4,1.2-0.6,2-0.6c0.6,0,1.1,0.1,1.5,0.4c0.3,0.3,0.5,0.6,0.5,1.1c0,0.5-0.1,0.9-0.4,1.2
			c-0.2,0.4-0.6,0.6-1,0.8s-0.9,0.3-1.4,0.3c-0.6,0-1.1-0.1-1.5-0.4c-0.3-0.2-0.5-0.6-0.5-1.1C125.4,209.7,125.7,209.1,126.2,208.7z
			"/>
		<path fill="#FFFFFF" d="M133.2,225.8c-0.8,0-1.5-0.1-2.1-0.4c-0.6-0.3-1.1-0.6-1.4-1.2c-0.3-0.5-0.5-1.2-0.5-2c0-1.3,0.3-2.6,1-4
			s1.6-2.5,2.9-3.3c1.2-0.9,2.7-1.3,4.2-1.3c0.6,0,1.1,0.1,1.5,0.3c0.4,0.2,0.8,0.5,1,0.8s0.3,0.7,0.3,1.2c0,0.5-0.1,0.9-0.4,1.4
			s-0.6,0.8-1,1.1s-0.8,0.4-1.3,0.4c-0.3,0-0.5-0.1-0.7-0.2s-0.4-0.3-0.6-0.5c-0.1-0.2-0.2-0.5-0.2-0.9c0-0.5,0.1-0.9,0.3-1.3
			c0.2-0.4,0.5-0.7,0.8-1c0.3-0.3,0.7-0.5,1.1-0.6c-0.2-0.2-0.5-0.3-0.8-0.3c-0.7,0-1.4,0.4-2.1,1.2c-0.7,0.8-1.2,1.8-1.6,3.1
			c-0.4,1.2-0.6,2.5-0.6,3.8c0,0.8,0.2,1.3,0.5,1.7c0.3,0.4,0.7,0.6,1.3,0.6c0.5,0,0.9-0.1,1.4-0.4c0.4-0.3,0.9-0.7,1.3-1.4l0.4,0.2
			C137,224.8,135.3,225.8,133.2,225.8z"/>
		<path fill="#FFFFFF" d="M151.9,221.9l-0.6,1.6c-0.5,1.5-1.6,2.3-3.2,2.3c-0.9,0-1.6-0.3-1.9-0.8c-0.2-0.3-0.4-0.8-0.4-1.4
			c0-0.2,0-0.3,0-0.4c-0.4,0.9-0.8,1.6-1.4,2c-0.6,0.4-1.2,0.6-2,0.6c-0.9,0-1.6-0.2-2.1-0.7c-0.5-0.5-0.7-1.2-0.7-2.1
			c0-1.4,0.4-2.8,1.1-4.3c0.7-1.5,1.7-2.7,2.8-3.6c1.1-1,2.2-1.4,3.2-1.4c0.8,0,1.3,0.4,1.4,1.3l0.3-0.9c1.5,0,2.8-0.1,4-0.3l-3,9.9
			c-0.1,0.2-0.1,0.4-0.1,0.5c0,0.3,0.1,0.4,0.4,0.4c0.4,0,0.8-0.5,1.2-1.4l0.5-1.2H151.9z M148,215.4c0-0.4-0.1-0.6-0.4-0.6
			c-0.4,0-0.9,0.4-1.5,1.3c-0.6,0.9-1.1,1.9-1.5,3.2c-0.4,1.3-0.6,2.6-0.6,3.8c0,0.4,0,0.7,0.1,0.9c0.1,0.2,0.2,0.3,0.4,0.3
			c0.3,0,0.6-0.2,0.9-0.6c0.3-0.4,0.6-1.2,1-2.2l1.7-5.7C148,215.5,148,215.4,148,215.4z"/>
		<path fill="#FFFFFF" d="M165.6,221.9l-0.6,1.6c-0.5,1.5-1.6,2.3-3.2,2.3c-1,0-1.6-0.3-2-0.8c-0.2-0.3-0.4-0.7-0.4-1.2
			c0-0.5,0.1-1.1,0.3-1.8l1.9-5.7c0.1-0.4,0.2-0.7,0.2-0.9c0-0.2-0.1-0.3-0.2-0.3c-0.4,0-0.9,0.5-1.5,1.6c-0.6,1-1.2,2.4-1.9,4
			s-1.2,3.2-1.6,4.9l0,0l0,0.1h-3.9l2.7-9.6c0.1-0.3,0.1-0.5,0.1-0.6c0-0.2-0.1-0.3-0.3-0.3c-0.2,0-0.4,0.1-0.6,0.3
			c-0.2,0.2-0.4,0.6-0.6,1.1l-0.5,1.4h-0.4l0.6-1.7c0.3-0.8,0.7-1.4,1.2-1.7c0.5-0.4,1.1-0.6,1.9-0.6c0.8,0,1.4,0.2,1.8,0.6
			c0.4,0.4,0.5,0.9,0.5,1.5c0,0.3,0,0.7-0.1,1l-0.6,2.3c0.6-1.4,1.1-2.6,1.7-3.3c0.5-0.8,1.1-1.3,1.6-1.6c0.5-0.3,1.2-0.5,1.9-0.5
			c1.5,0,2.2,0.6,2.2,1.8c0,0.4-0.1,0.9-0.3,1.5l-2.2,6.6c-0.1,0.2-0.1,0.4-0.1,0.5c0,0.3,0.1,0.4,0.4,0.4c0.4,0,0.8-0.5,1.2-1.4
			l0.5-1.2H165.6z"/>
		<path fill="#FFFFFF" d="M184.9,224.7c0.2,0.2,0.4,0.3,0.7,0.4l-0.1,0.4c-0.9,0-2.1-0.1-3.7-0.1c-1.7,0-3,0-3.8,0.1l0.1-0.4
			c0.5,0,0.8-0.1,1.1-0.2c0.3-0.1,0.5-0.2,0.6-0.5c0.1-0.2,0.2-0.5,0.2-0.9c0-0.1,0-0.2,0-0.3l-0.2-3.6h-4.4l-2.2,3
			c-0.3,0.5-0.5,0.9-0.5,1.3c0,0.7,0.7,1.1,2,1.2l-0.1,0.4c-1.5,0-2.6-0.1-3.1-0.1c-0.5,0-1,0-1.5,0.1l0.1-0.4
			c0.3-0.1,0.6-0.2,0.8-0.4c0.2-0.2,0.5-0.4,0.8-0.8c0.3-0.3,0.7-0.8,1.1-1.5l9.1-12.7c0.2,0,0.5,0,0.9,0c0.3,0,0.6,0,0.8,0l0.9,14
			C184.6,224.1,184.7,224.5,184.9,224.7z M179.5,213.8l-3.7,5.3h4L179.5,213.8z"/>
		<path fill="#FFFFFF" d="M205.8,221.9l-0.6,1.6c-0.5,1.5-1.6,2.3-3.2,2.3c-1,0-1.7-0.3-2.1-0.9c-0.2-0.3-0.3-0.7-0.3-1.2
			c0-0.5,0.1-1.1,0.3-1.7l1.9-5.7c0.1-0.3,0.2-0.6,0.2-0.7c0-0.2-0.1-0.3-0.2-0.3c-0.3,0-0.6,0.2-1,0.7s-0.8,1.2-1.4,2.3
			c-0.5,1.1-1,2.4-1.6,4.2l-0.9,3.1h-4l2.7-9.3c0.1-0.4,0.2-0.7,0.2-0.8c0-0.1-0.1-0.2-0.2-0.2c-0.5,0-1.1,0.6-1.8,1.8
			c-0.7,1.2-1.3,2.9-2,5l-0.9,3.4h-3.9l2.7-9.6c0.1-0.2,0.1-0.4,0.1-0.6c0-0.3-0.1-0.4-0.3-0.4c-0.4,0-0.8,0.5-1.2,1.4l-0.5,1.4
			h-0.4l0.6-1.7c0.3-0.8,0.7-1.4,1.3-1.7c0.6-0.4,1.2-0.6,1.9-0.6c0.8,0,1.3,0.2,1.7,0.6c0.3,0.4,0.5,0.9,0.5,1.5
			c0,0.3,0,0.7-0.1,1.1l-0.2,1c0.4-1,0.9-1.8,1.3-2.4c0.5-0.6,1-1,1.5-1.3c0.6-0.3,1.2-0.4,1.9-0.4c1.3,0,2,0.6,2,1.8
			c0,0.5-0.1,1-0.3,1.6l-0.1,0.4c0.4-1,0.9-1.7,1.4-2.3c0.5-0.6,1-0.9,1.5-1.2c0.5-0.2,1.1-0.3,1.7-0.3c1.3,0,2,0.6,2,1.7
			c0,0.5-0.1,1-0.3,1.6l-2.2,6.6c-0.1,0.2-0.1,0.4-0.1,0.5c0,0.3,0.1,0.4,0.4,0.4c0.4,0,0.8-0.5,1.2-1.4l0.5-1.2H205.8z"/>
		<path fill="#FFFFFF" d="M213.9,224.9c-1,0.6-2.1,0.9-3.3,0.9c-0.7,0-1.4-0.1-1.9-0.4c-0.6-0.2-1-0.6-1.4-1.1
			c-0.3-0.5-0.5-1-0.5-1.7c0-1.5,0.4-2.9,1.1-4.3c0.7-1.4,1.8-2.5,3.1-3.4c1.3-0.9,2.7-1.3,4.3-1.3c0.8,0,1.5,0.2,2,0.5
			c0.5,0.3,0.8,0.8,0.8,1.5c0,0.8-0.3,1.6-1,2.3s-1.5,1.3-2.6,1.8c-1.1,0.5-2.2,0.9-3.4,1.2c-0.1,0.4-0.1,0.8-0.1,1.1
			c0,0.8,0.2,1.4,0.5,1.7s0.8,0.5,1.4,0.5c0.4,0,0.8-0.1,1.4-0.4c0.6-0.3,1.1-0.6,1.7-1.2l0.3,0.2
			C215.6,223.7,214.8,224.4,213.9,224.9z M213.3,215c-0.5,0.6-1,1.5-1.4,2.5c-0.4,1-0.7,2-0.9,3c0.8-0.4,1.4-0.9,2-1.5
			c1.3-1.3,2-2.8,2-4.4c0-0.4-0.1-0.6-0.4-0.6C214.3,214.1,213.8,214.4,213.3,215z"/>
		<path fill="#FFFFFF" d="M222.1,213.7c0.7,0,1.3,0.2,1.6,0.6s0.5,0.9,0.5,1.5c0,0.1,0,0.2,0,0.4c0.3-0.6,0.6-1.1,0.9-1.5
			c0.3-0.4,0.7-0.6,1-0.8c0.4-0.2,0.8-0.2,1.3-0.2c0.4,0,0.8,0.1,1.2,0.3c0.3,0.2,0.6,0.4,0.7,0.8c0.2,0.3,0.3,0.7,0.3,1.1
			c0,0.5-0.1,1-0.3,1.4c-0.2,0.4-0.5,0.8-0.9,1c-0.4,0.3-0.8,0.4-1.3,0.4c-0.5,0-1-0.1-1.2-0.4c-0.3-0.3-0.4-0.7-0.4-1.2
			c0-0.4,0.1-0.8,0.3-1.2c0.2-0.4,0.5-0.7,0.9-1s0.8-0.4,1.2-0.5c-0.2-0.1-0.3-0.1-0.3-0.1c-0.5,0-0.9,0.1-1.3,0.3
			c-0.4,0.2-0.8,0.7-1.3,1.4s-1,1.9-1.5,3.5l-1.6,6.2h-3.9l2.7-9.6c0.1-0.2,0.1-0.4,0.1-0.6c0-0.2-0.1-0.4-0.3-0.4
			c-0.2,0-0.4,0.1-0.6,0.3c-0.2,0.2-0.4,0.6-0.6,1.1l-0.5,1.4h-0.4l0.6-1.7C219.4,214.4,220.5,213.7,222.1,213.7z"/>
		<path fill="#FFFFFF" d="M231.8,215.3c0-0.3-0.1-0.4-0.3-0.4c-0.2,0-0.4,0.1-0.6,0.3c-0.2,0.2-0.4,0.6-0.6,1.1l-0.5,1.4h-0.4
			l0.6-1.7c0.6-1.5,1.7-2.3,3.3-2.3c0.8,0,1.4,0.2,1.8,0.6s0.6,0.9,0.6,1.5c0,0.4-0.1,0.7-0.2,1.1l-2.3,6.8
			c-0.1,0.2-0.1,0.4-0.1,0.5c0,0.3,0.1,0.4,0.4,0.4c0.4,0,0.8-0.5,1.2-1.4l0.5-1.2h0.4l-0.6,1.6c-0.5,1.5-1.6,2.3-3.2,2.3
			c-0.8,0-1.3-0.2-1.7-0.5s-0.6-0.9-0.6-1.6c0-0.5,0.1-1.1,0.3-1.7l2-6.1C231.7,215.6,231.8,215.5,231.8,215.3z M233.3,208.7
			c0.5-0.4,1.2-0.6,2-0.6c0.6,0,1.1,0.1,1.5,0.4c0.3,0.3,0.5,0.6,0.5,1.1c0,0.5-0.1,0.9-0.4,1.2c-0.2,0.4-0.6,0.6-1,0.8
			c-0.4,0.2-0.9,0.3-1.4,0.3c-0.6,0-1.1-0.1-1.5-0.4c-0.3-0.2-0.5-0.6-0.5-1.1C232.6,209.7,232.8,209.1,233.3,208.7z"/>
		<path fill="#FFFFFF" d="M240.3,225.8c-0.8,0-1.5-0.1-2.1-0.4c-0.6-0.3-1.1-0.6-1.4-1.2c-0.3-0.5-0.5-1.2-0.5-2c0-1.3,0.3-2.6,1-4
			s1.6-2.5,2.9-3.3c1.2-0.9,2.7-1.3,4.2-1.3c0.6,0,1.1,0.1,1.5,0.3c0.4,0.2,0.8,0.5,1,0.8s0.3,0.7,0.3,1.2c0,0.5-0.1,0.9-0.4,1.4
			s-0.6,0.8-1,1.1c-0.4,0.3-0.8,0.4-1.3,0.4c-0.3,0-0.5-0.1-0.7-0.2s-0.4-0.3-0.6-0.5c-0.1-0.2-0.2-0.5-0.2-0.9
			c0-0.5,0.1-0.9,0.3-1.3s0.5-0.7,0.8-1c0.3-0.3,0.7-0.5,1.1-0.6c-0.2-0.2-0.5-0.3-0.8-0.3c-0.7,0-1.4,0.4-2.1,1.2s-1.2,1.8-1.6,3.1
			c-0.4,1.2-0.6,2.5-0.6,3.8c0,0.8,0.2,1.3,0.5,1.7c0.3,0.4,0.7,0.6,1.3,0.6c0.5,0,0.9-0.1,1.4-0.4c0.4-0.3,0.9-0.7,1.3-1.4l0.4,0.2
			C244.1,224.8,242.4,225.8,240.3,225.8z"/>
		<path fill="#FFFFFF" d="M259,221.9l-0.6,1.6c-0.5,1.5-1.6,2.3-3.2,2.3c-0.9,0-1.6-0.3-1.9-0.8c-0.2-0.3-0.4-0.8-0.4-1.4
			c0-0.2,0-0.3,0-0.4c-0.4,0.9-0.8,1.6-1.4,2c-0.6,0.4-1.2,0.6-2,0.6c-0.9,0-1.6-0.2-2.1-0.7c-0.5-0.5-0.7-1.2-0.7-2.1
			c0-1.4,0.4-2.8,1.1-4.3c0.7-1.5,1.7-2.7,2.8-3.6c1.1-1,2.2-1.4,3.2-1.4c0.8,0,1.3,0.4,1.4,1.3l0.3-0.9c1.5,0,2.8-0.1,4-0.3l-3,9.9
			c-0.1,0.2-0.1,0.4-0.1,0.5c0,0.3,0.1,0.4,0.4,0.4c0.4,0,0.8-0.5,1.2-1.4l0.5-1.2H259z M255.2,215.4c0-0.4-0.1-0.6-0.4-0.6
			c-0.4,0-0.9,0.4-1.5,1.3c-0.6,0.9-1.1,1.9-1.5,3.2c-0.4,1.3-0.6,2.6-0.6,3.8c0,0.4,0,0.7,0.1,0.9c0.1,0.2,0.2,0.3,0.4,0.3
			c0.3,0,0.6-0.2,0.9-0.6c0.3-0.4,0.6-1.2,1-2.2l1.7-5.7C255.2,215.5,255.2,215.4,255.2,215.4z"/>
		<path fill="#FFFFFF" d="M272.8,221.9l-0.6,1.6c-0.5,1.5-1.6,2.3-3.2,2.3c-1,0-1.6-0.3-2-0.8c-0.2-0.3-0.4-0.7-0.4-1.2
			c0-0.5,0.1-1.1,0.3-1.8l1.9-5.7c0.1-0.4,0.2-0.7,0.2-0.9c0-0.2-0.1-0.3-0.2-0.3c-0.4,0-0.9,0.5-1.5,1.6c-0.6,1-1.2,2.4-1.9,4
			s-1.2,3.2-1.6,4.9l0,0l0,0.1H260l2.7-9.6c0.1-0.3,0.1-0.5,0.1-0.6c0-0.2-0.1-0.3-0.3-0.3c-0.2,0-0.4,0.1-0.6,0.3
			c-0.2,0.2-0.4,0.6-0.6,1.1l-0.5,1.4h-0.4l0.6-1.7c0.3-0.8,0.7-1.4,1.2-1.7s1.1-0.6,1.9-0.6c0.8,0,1.4,0.2,1.8,0.6
			c0.4,0.4,0.5,0.9,0.5,1.5c0,0.3,0,0.7-0.1,1l-0.6,2.3c0.6-1.4,1.1-2.6,1.7-3.3c0.5-0.8,1.1-1.3,1.6-1.6s1.2-0.5,1.9-0.5
			c1.5,0,2.2,0.6,2.2,1.8c0,0.4-0.1,0.9-0.3,1.5l-2.2,6.6c-0.1,0.2-0.1,0.4-0.1,0.5c0,0.3,0.1,0.4,0.4,0.4c0.4,0,0.8-0.5,1.2-1.4
			l0.5-1.2H272.8z"/>
		<path fill="#FFFFFF" d="M276.3,225.3c0.5,0,0.8-0.2,1.1-0.5c0.3-0.3,0.4-0.7,0.4-1.2c0-0.5-0.1-1-0.3-1.5c-0.2-0.5-0.5-1.1-1-1.8
			c-0.3-0.6-0.6-1-0.8-1.3c-0.2-0.3-0.3-0.6-0.4-1c-0.1-0.4-0.2-0.7-0.2-1.1c0-0.6,0.2-1.2,0.5-1.7c0.3-0.5,0.8-0.9,1.5-1.2
			c0.7-0.3,1.5-0.4,2.4-0.4c1.1,0,2,0.2,2.7,0.6c0.7,0.4,1.1,1,1.1,2c0,0.3-0.1,0.6-0.2,0.9s-0.3,0.6-0.5,0.7
			c-0.2,0.2-0.5,0.3-0.9,0.3c-0.4,0-0.8-0.2-1-0.5s-0.4-0.8-0.4-1.3c0-0.4,0.1-0.8,0.2-1.2c0.1-0.4,0.3-0.7,0.5-0.9
			c-0.1-0.1-0.3-0.1-0.6-0.1c-0.5,0-0.9,0.2-1.2,0.5c-0.3,0.3-0.4,0.7-0.4,1.3c0,0.4,0.1,0.7,0.2,1.1c0.2,0.4,0.4,0.7,0.6,1.1
			c0.2,0.4,0.4,0.6,0.5,0.8c0.5,0.8,0.8,1.5,1,2c0.2,0.5,0.3,1,0.3,1.5c0,0.6-0.2,1.2-0.5,1.7c-0.3,0.5-0.8,0.9-1.5,1.2
			s-1.5,0.4-2.4,0.4c-1.2,0-2.2-0.2-2.9-0.7c-0.8-0.4-1.2-1.2-1.2-2.2c0-0.6,0.1-1,0.4-1.4s0.6-0.6,1.1-0.6c0.4,0,0.8,0.2,1,0.5
			s0.4,0.8,0.4,1.4c0,0.3,0,0.6-0.1,0.9c-0.1,0.3-0.2,0.5-0.2,0.8c-0.1,0.2-0.2,0.4-0.3,0.6C275.8,225.3,276.1,225.3,276.3,225.3z"
			/>
	</g>
	<g>
		<path fill="#FFFFFF" d="M72.3,260.4l-0.5,1.4c-0.4,1.3-1.4,2-2.7,2c-0.7,0-1.2-0.2-1.5-0.5c-0.3-0.3-0.5-0.8-0.5-1.3
			c0-0.5,0.1-0.9,0.3-1.5l1.6-4.9c0.1-0.3,0.2-0.6,0.2-0.7c0-0.2-0.1-0.3-0.2-0.3c-0.3,0-0.6,0.3-1.1,1c-0.4,0.7-0.9,1.5-1.3,2.6
			c-0.5,1.1-0.9,2.2-1.3,3.4l-0.5,1.8l0,0.1v0l0,0.1h-3.4l3.8-12.7c0.1-0.2,0.1-0.4,0.1-0.5c0-0.3-0.1-0.4-0.3-0.6
			c-0.2-0.1-0.5-0.2-1-0.2l0.1-0.4c1,0,1.9-0.1,2.7-0.2c0.8-0.1,1.6-0.3,2.4-0.6l-2.5,8.4c0.4-0.9,0.8-1.6,1.2-2.1
			c0.4-0.5,0.8-0.8,1.2-1s0.9-0.3,1.4-0.3c1.2,0,1.9,0.5,1.9,1.6c0,0.4-0.1,0.8-0.3,1.3l-1.9,5.7c-0.1,0.2-0.1,0.3-0.1,0.4
			c0,0.2,0.1,0.4,0.3,0.4c0.4,0,0.7-0.4,1-1.2l0.4-1.1H72.3z"/>
		<path fill="#FFFFFF" d="M83.4,260.4l-0.5,1.4c-0.5,1.3-1.4,2-2.7,2c-0.8,0-1.3-0.2-1.7-0.7c-0.2-0.3-0.3-0.7-0.3-1.2
			c0-0.1,0-0.3,0-0.3c-0.3,0.8-0.7,1.3-1.2,1.7c-0.5,0.3-1.1,0.5-1.7,0.5c-0.8,0-1.4-0.2-1.8-0.6c-0.4-0.4-0.6-1-0.6-1.8
			c0-1.2,0.3-2.4,1-3.7c0.6-1.3,1.4-2.3,2.4-3.1c1-0.8,1.9-1.2,2.8-1.2c0.7,0,1.1,0.4,1.2,1.1l0.2-0.8c1.3,0,2.4-0.1,3.4-0.3
			l-2.6,8.5c-0.1,0.2-0.1,0.3-0.1,0.5c0,0.2,0.1,0.3,0.3,0.3c0.4,0,0.7-0.4,1-1.2l0.4-1.1H83.4z M80.1,254.8c0-0.4-0.1-0.5-0.4-0.5
			c-0.4,0-0.8,0.4-1.3,1.1c-0.5,0.7-1,1.7-1.3,2.8c-0.4,1.1-0.6,2.2-0.6,3.3c0,0.4,0,0.6,0.1,0.8c0.1,0.1,0.2,0.2,0.3,0.2
			c0.2,0,0.5-0.2,0.8-0.5c0.3-0.4,0.5-1,0.8-1.9l1.5-4.9C80.1,255,80.1,254.9,80.1,254.8z"/>
		<path fill="#FFFFFF" d="M89.4,256.3c-0.4,1-0.8,2-1,2.9s-0.4,1.7-0.4,2.3c0,0.4,0.1,0.8,0.2,1s0.4,0.3,0.7,0.3
			c0.6,0,1.2-0.2,1.8-0.7c0.5-0.5,1-1.1,1.4-1.8c0.4-0.7,0.7-1.5,0.9-2.4c-0.7-0.3-1.2-0.7-1.6-1.2c-0.4-0.5-0.6-1.1-0.6-1.7
			c0-0.5,0.1-0.9,0.4-1.1s0.6-0.4,1.1-0.4c1,0,1.5,0.6,1.5,1.9c0,1.3-0.2,2.6-0.7,3.9s-1.2,2.4-2.1,3.3c-1,0.9-2.1,1.3-3.5,1.3
			c-1.1,0-1.9-0.2-2.3-0.7c-0.5-0.5-0.7-1-0.7-1.7c0-1.1,0.5-2.3,1.5-3.5c1-1.2,2.3-2.4,4.1-3.8c-0.4,0-0.7,0.1-1,0.3
			c-0.3,0.2-0.6,0.5-1,0.9c-0.4,0.4-0.8,0.6-1.1,0.6c-0.1,0-0.2,0-0.3,0s-0.2-0.1-0.4-0.1c-0.2-0.1-0.3-0.1-0.4-0.1
			c-0.2,0-0.3,0.1-0.4,0.2c-0.1,0.1-0.2,0.3-0.3,0.6l-0.1,0.4h-0.4l0.4-1.4c0.4-1.4,1-2.1,1.8-2.1c0.2,0,0.4,0.1,0.7,0.2
			c0.2,0.1,0.5,0.2,0.7,0.3s0.4,0.1,0.7,0.1c0.4,0,0.9-0.1,1.2-0.3l0.2-0.4l0.4,0.2C90.3,254.3,89.8,255.3,89.4,256.3z"/>
		<path fill="#FFFFFF" d="M100.2,263.1c-0.8,0.5-1.8,0.7-2.9,0.7c-0.6,0-1.2-0.1-1.7-0.3c-0.5-0.2-0.9-0.5-1.2-0.9s-0.4-0.9-0.4-1.5
			c0-1.2,0.3-2.5,1-3.7s1.5-2.2,2.6-2.9s2.3-1.1,3.7-1.1c0.7,0,1.3,0.1,1.7,0.4c0.4,0.3,0.6,0.7,0.6,1.3c0,0.7-0.3,1.4-0.9,2
			c-0.6,0.6-1.3,1.1-2.2,1.6s-1.9,0.8-2.9,1c0,0.3-0.1,0.7-0.1,1c0,0.7,0.1,1.2,0.4,1.4c0.3,0.3,0.7,0.4,1.2,0.4
			c0.3,0,0.7-0.1,1.2-0.3c0.5-0.2,1-0.6,1.4-1l0.3,0.1C101.6,262,101,262.6,100.2,263.1z M99.7,254.6c-0.4,0.5-0.8,1.3-1.2,2.1
			s-0.6,1.7-0.8,2.6c0.7-0.4,1.2-0.8,1.8-1.3c1.2-1.1,1.7-2.4,1.7-3.8c0-0.3-0.1-0.5-0.3-0.5C100.5,253.7,100.1,254,99.7,254.6z"/>
		<path fill="#FFFFFF" d="M118.9,260.4l-0.5,1.4c-0.4,1.3-1.4,2-2.7,2c-0.7,0-1.2-0.2-1.5-0.5c-0.3-0.3-0.5-0.8-0.5-1.3
			c0-0.5,0.1-0.9,0.3-1.5l1.6-4.9c0.1-0.3,0.2-0.6,0.2-0.7c0-0.2-0.1-0.3-0.2-0.3c-0.3,0-0.6,0.3-1.1,1c-0.4,0.7-0.9,1.5-1.3,2.6
			c-0.5,1.1-0.9,2.2-1.3,3.4l-0.5,1.8l0,0.1v0l0,0.1H108l3.8-12.7c0.1-0.2,0.1-0.4,0.1-0.5c0-0.3-0.1-0.4-0.3-0.6
			c-0.2-0.1-0.5-0.2-1-0.2l0.1-0.4c1,0,1.9-0.1,2.7-0.2c0.8-0.1,1.6-0.3,2.4-0.6l-2.5,8.4c0.4-0.9,0.8-1.6,1.2-2.1
			c0.4-0.5,0.8-0.8,1.2-1s0.9-0.3,1.4-0.3c1.2,0,1.9,0.5,1.9,1.6c0,0.4-0.1,0.8-0.3,1.3l-1.9,5.7c-0.1,0.2-0.1,0.3-0.1,0.4
			c0,0.2,0.1,0.4,0.3,0.4c0.4,0,0.7-0.4,1-1.2l0.4-1.1H118.9z"/>
		<path fill="#FFFFFF" d="M122.2,254.8c0-0.2-0.1-0.3-0.3-0.3c-0.2,0-0.4,0.1-0.5,0.3c-0.2,0.2-0.3,0.5-0.5,0.9l-0.4,1.2h-0.4
			l0.5-1.5c0.5-1.3,1.4-2,2.8-2c0.7,0,1.2,0.2,1.5,0.5s0.5,0.8,0.5,1.3c0,0.3-0.1,0.6-0.2,0.9l-2,5.9c-0.1,0.2-0.1,0.3-0.1,0.5
			c0,0.2,0.1,0.3,0.3,0.3c0.4,0,0.7-0.4,1-1.2l0.4-1.1h0.4l-0.5,1.4c-0.4,1.3-1.4,2-2.7,2c-0.6,0-1.1-0.2-1.5-0.5
			c-0.4-0.3-0.5-0.8-0.5-1.3c0-0.4,0.1-0.9,0.3-1.5l1.8-5.3C122.2,255.1,122.2,254.9,122.2,254.8z M123.6,249.1
			c0.4-0.3,1-0.5,1.7-0.5c0.6,0,1,0.1,1.3,0.3c0.3,0.2,0.4,0.5,0.4,1c0,0.4-0.1,0.7-0.3,1c-0.2,0.3-0.5,0.5-0.8,0.7
			c-0.4,0.2-0.8,0.2-1.2,0.2c-0.5,0-1-0.1-1.2-0.3s-0.4-0.5-0.4-0.9C122.9,250,123.1,249.5,123.6,249.1z"/>
		<path fill="#FFFFFF" d="M126.6,262.9c-0.2-0.2-0.3-0.5-0.3-0.8c0-0.4,0.2-0.7,0.5-1s0.7-0.6,1.2-0.8c0.5-0.2,1.2-0.5,2-0.9
			c-0.9,0-1.7-0.2-2.3-0.6s-0.9-0.9-0.9-1.6c0-0.6,0.2-1.2,0.7-1.8c0.4-0.6,1.1-1.1,1.9-1.4c0.8-0.4,1.7-0.6,2.8-0.6
			c0.3,0,0.6,0,0.8,0c0.3-0.6,0.6-1.2,0.8-1.6c0.3-0.4,0.6-0.8,0.9-1c0.4-0.3,0.8-0.4,1.2-0.4c0.4,0,0.8,0.1,1,0.3
			c0.3,0.2,0.4,0.6,0.4,1c0,0.3-0.1,0.6-0.2,1c-0.2,0.3-0.4,0.6-0.7,0.7c-0.3,0.2-0.6,0.3-0.9,0.3c-0.3,0-0.6-0.1-0.8-0.3
			s-0.3-0.5-0.3-0.8c0-0.3,0.1-0.5,0.2-0.8c0.2-0.3,0.4-0.5,0.7-0.8c-0.1,0-0.1,0-0.2,0c-0.1,0-0.2,0.1-0.3,0.2
			c-0.2,0.2-0.4,0.5-0.7,1c-0.3,0.4-0.5,0.9-0.7,1.4c0.6,0.1,1.2,0.4,1.5,0.7s0.5,0.8,0.5,1.4c0,0.6-0.2,1.2-0.6,1.7
			c-0.4,0.6-0.9,1-1.6,1.4s-1.5,0.6-2.4,0.7c-1,0.4-1.6,0.7-1.6,1c0,0.1,0.1,0.2,0.2,0.2c0.1,0.1,0.3,0.1,0.5,0.2l1.7,0.7
			c1.4,0.5,2.2,1.3,2.2,2.2c0,0.8-0.3,1.4-1,1.9c-0.6,0.5-1.4,0.9-2.3,1.1c-0.9,0.2-1.8,0.4-2.6,0.4c-0.8,0-1.5-0.1-2-0.2
			c-0.6-0.1-1-0.3-1.3-0.5c-0.3-0.2-0.5-0.5-0.5-0.8c0-0.5,0.2-0.8,0.6-1c0.4-0.2,1-0.4,1.8-0.6c0.8-0.2,1.4-0.3,1.7-0.4l-0.8-0.2
			C127.1,263.3,126.8,263.1,126.6,262.9z M127.7,265.1c-0.2,0.4-0.2,0.8-0.2,1.1c0,0.2,0.1,0.3,0.2,0.4c0.1,0.1,0.3,0.1,0.5,0.1
			c0.4,0,0.9-0.1,1.4-0.2c0.5-0.1,0.9-0.4,1.2-0.6c0.3-0.3,0.5-0.6,0.5-0.9c0-0.2,0-0.3-0.1-0.4c-0.1-0.1-0.2-0.2-0.3-0.2
			s-0.3-0.1-0.6-0.2l-1.6-0.5C128.1,264.2,127.9,264.7,127.7,265.1z M131.3,258.5c0.3-0.4,0.5-0.9,0.6-1.6c0.1-0.6,0.2-1.3,0.2-2
			c0-0.4,0-0.7-0.1-0.9c-0.1-0.2-0.2-0.3-0.4-0.3c-0.3,0-0.5,0.2-0.8,0.6c-0.3,0.4-0.5,0.9-0.6,1.6s-0.2,1.3-0.2,2
			c0,0.4,0,0.7,0.1,0.9s0.2,0.2,0.4,0.2C130.8,259.1,131.1,258.9,131.3,258.5z"/>
		<path fill="#FFFFFF" d="M145.9,260.4l-0.5,1.4c-0.4,1.3-1.4,2-2.7,2c-0.7,0-1.2-0.2-1.5-0.5c-0.3-0.3-0.5-0.8-0.5-1.3
			c0-0.5,0.1-0.9,0.3-1.5l1.6-4.9c0.1-0.3,0.2-0.6,0.2-0.7c0-0.2-0.1-0.3-0.2-0.3c-0.3,0-0.6,0.3-1.1,1c-0.4,0.7-0.9,1.5-1.3,2.6
			c-0.5,1.1-0.9,2.2-1.3,3.4l-0.5,1.8l0,0.1v0l0,0.1h-3.4l3.8-12.7c0.1-0.2,0.1-0.4,0.1-0.5c0-0.3-0.1-0.4-0.3-0.6
			c-0.2-0.1-0.5-0.2-1-0.2l0.1-0.4c1,0,1.9-0.1,2.7-0.2c0.8-0.1,1.6-0.3,2.4-0.6l-2.5,8.4c0.4-0.9,0.8-1.6,1.2-2.1
			c0.4-0.5,0.8-0.8,1.2-1s0.9-0.3,1.4-0.3c1.2,0,1.9,0.5,1.9,1.6c0,0.4-0.1,0.8-0.3,1.3l-1.9,5.7c-0.1,0.2-0.1,0.3-0.1,0.4
			c0,0.2,0.1,0.4,0.3,0.4c0.4,0,0.7-0.4,1-1.2l0.4-1.1H145.9z"/>
		<path fill="#FFFFFF" d="M158.1,253.8c0.4-0.3,0.9-0.5,1.4-0.5c0.9,0,1.5,0.3,2,0.8s0.7,1.3,0.7,2.3c0,1-0.3,2.1-0.8,3.3
			s-1.2,2.1-2.2,2.9c-0.9,0.8-2,1.2-3.2,1.2c-0.6,0-1.1-0.1-1.5-0.4c-0.3-0.1-0.5-0.1-0.8-0.1c-0.6,0-1.4,0.2-2.4,0.5l-0.3-0.1
			c0.1-0.3,0.3-0.6,0.4-1.1l3.5-11.8c0.1-0.2,0.1-0.4,0.1-0.5c0-0.3-0.1-0.4-0.3-0.6c-0.2-0.1-0.5-0.2-1-0.2l0.1-0.4
			c1,0,1.9-0.1,2.7-0.2c0.8-0.1,1.6-0.3,2.4-0.6l-2,6.9C157.3,254.6,157.7,254.1,158.1,253.8z M155.1,263.2c0.5,0,1.1-0.4,1.6-1.2
			c0.5-0.8,1-1.8,1.3-3c0.3-1.2,0.5-2.3,0.5-3.3c0-0.4,0-0.7-0.1-0.9c-0.1-0.2-0.2-0.2-0.4-0.2c-0.2,0-0.5,0.2-0.8,0.5
			s-0.5,0.7-0.8,1.3l-2,6.7C154.8,263.2,154.9,263.2,155.1,263.2z"/>
		<path fill="#FFFFFF" d="M165.7,262.3c0,0.2,0,0.3,0.1,0.3s0.2,0.1,0.3,0.1c0.1,0,0.3-0.1,0.4-0.2s0.3-0.5,0.5-1l0.4-1.1h0.4
			l-0.5,1.4c-0.3,0.7-0.6,1.3-1.1,1.5s-1,0.4-1.6,0.4c-0.6,0-1.1-0.2-1.5-0.5c-0.4-0.3-0.5-0.8-0.5-1.4c0-0.4,0.1-0.8,0.2-1.3
			l2.9-9.7c0.1-0.2,0.1-0.4,0.1-0.5c0-0.3-0.1-0.4-0.3-0.6c-0.2-0.1-0.5-0.2-1-0.2l0.1-0.4c1,0,1.9-0.1,2.7-0.2
			c0.8-0.1,1.6-0.3,2.4-0.6l-4,13.5C165.7,262.1,165.7,262.2,165.7,262.3z"/>
		<path fill="#FFFFFF" d="M169.4,257.3c0.5-1.1,1.2-2,2.2-2.8c1-0.7,2.2-1.1,3.7-1.1c1.1,0,1.9,0.3,2.5,0.8c0.6,0.6,0.9,1.4,0.9,2.4
			c0,1.1-0.2,2.2-0.7,3.3c-0.5,1.1-1.2,2-2.2,2.8c-1,0.7-2.2,1.1-3.6,1.1c-1.1,0-1.9-0.3-2.5-0.8c-0.6-0.6-0.9-1.4-0.9-2.4
			C168.7,259.5,168.9,258.4,169.4,257.3z M173.9,255.2c-0.5,1-1,2.1-1.4,3.5s-0.6,2.6-0.6,3.7c0,0.4,0,0.7,0.1,0.8
			c0.1,0.2,0.2,0.2,0.3,0.2c0.3,0,0.8-0.5,1.3-1.4c0.5-0.9,1-2,1.4-3.4c0.4-1.3,0.6-2.6,0.6-3.8c0-0.4,0-0.7-0.1-0.9
			c-0.1-0.1-0.1-0.2-0.2-0.2C174.9,253.8,174.4,254.2,173.9,255.2z"/>
		<path fill="#FFFFFF" d="M180.1,257.3c0.5-1.1,1.2-2,2.2-2.8s2.2-1.1,3.7-1.1c1.1,0,1.9,0.3,2.5,0.8c0.6,0.6,0.9,1.4,0.9,2.4
			c0,1.1-0.2,2.2-0.7,3.3c-0.5,1.1-1.2,2-2.2,2.8c-1,0.7-2.2,1.1-3.6,1.1c-1.1,0-1.9-0.3-2.5-0.8c-0.6-0.6-0.9-1.4-0.9-2.4
			C179.3,259.5,179.6,258.4,180.1,257.3z M184.5,255.2c-0.5,1-1,2.1-1.4,3.5s-0.6,2.6-0.6,3.7c0,0.4,0,0.7,0.1,0.8
			c0.1,0.2,0.2,0.2,0.3,0.2c0.3,0,0.8-0.5,1.3-1.4c0.5-0.9,1-2,1.4-3.4c0.4-1.3,0.6-2.6,0.6-3.8c0-0.4,0-0.7-0.1-0.9
			c-0.1-0.1-0.1-0.2-0.2-0.2C185.5,253.8,185,254.2,184.5,255.2z"/>
		<path fill="#FFFFFF" d="M200.6,260.4l-0.5,1.4c-0.4,1.3-1.4,2-2.7,2c-0.8,0-1.4-0.2-1.7-0.7c-0.2-0.3-0.3-0.6-0.3-1.1
			c0-0.3,0-0.5,0.1-0.8c-0.4,0.9-0.9,1.6-1.4,2c-0.5,0.4-1.1,0.6-1.9,0.6c-0.5,0-0.9-0.1-1.2-0.3s-0.7-0.5-0.9-0.9
			c-0.2-0.4-0.3-0.9-0.3-1.6c0-1,0.3-2.1,0.8-3.3s1.3-2.2,2.2-3.1c1-0.8,2.1-1.3,3.4-1.3c0.6,0,1,0.2,1.2,0.5l0.8-3
			c0.1-0.2,0.1-0.4,0.1-0.5c0-0.3-0.1-0.4-0.3-0.6c-0.2-0.1-0.5-0.2-1-0.2l0.1-0.4c1.9,0,3.6-0.3,5.2-0.8l-3.7,13.5
			c-0.1,0.2-0.1,0.3-0.1,0.4c0,0.2,0.1,0.4,0.3,0.4c0.4,0,0.7-0.4,1-1.2l0.4-1.1H200.6z M197.1,253.9c-0.1-0.1-0.2-0.1-0.4-0.1
			c-0.4,0-0.9,0.4-1.4,1.1c-0.5,0.8-1,1.7-1.4,2.9c-0.4,1.2-0.6,2.4-0.6,3.7c0,0.4,0,0.7,0.1,0.8c0.1,0.2,0.2,0.3,0.4,0.3
			c0.2,0,0.4-0.1,0.7-0.4c0.3-0.3,0.5-0.7,0.8-1.3s0.6-1.4,0.9-2.3l0.6-2.2l0,0v0l0.5-2.1C197.3,254.1,197.2,254,197.1,253.9z"/>
		<path fill="#FFFFFF" d="M213.1,253.9c0.5-0.4,1-0.5,1.5-0.5c0.9,0,1.5,0.3,2,0.8s0.7,1.3,0.7,2.3c0,1-0.2,2.1-0.7,3.3
			s-1.1,2.1-2,2.9c-0.9,0.8-1.9,1.2-3,1.2c-0.7,0-1.3-0.1-1.8-0.4l-0.4,1.4c-0.1,0.4-0.1,0.6-0.1,0.8c0,0.4,0.1,0.6,0.4,0.7
			c0.2,0.1,0.6,0.2,1.2,0.2l-0.1,0.4c-0.2,0-0.6,0-1.3,0c-0.7,0-1.3,0-2,0c-0.6,0-1.2,0-1.9,0c-0.6,0-1,0-1.2,0l0.1-0.4
			c0.3,0,0.6,0,0.7-0.1c0.2-0.1,0.3-0.2,0.4-0.4c0.1-0.2,0.2-0.4,0.3-0.7l3.4-12.3c-0.3,0.8-0.7,1.5-1.2,2.1s-1,1.3-1.6,1.9
			l-0.2-0.3c0.5-0.6,1-1.2,1.4-1.6c0.4-0.5,0.7-1,1.1-1.7c0.4-0.7,0.7-1.5,1.1-2.5c1.2-0.1,2.4-0.4,3.6-0.7l-1.5,5.2
			C212.3,254.8,212.7,254.2,213.1,253.9z M210.3,263.2c0.6,0,1.1-0.4,1.6-1.1s1-1.6,1.3-2.7c0.3-1.1,0.5-2.2,0.5-3.2
			c0-0.4,0-0.8-0.1-1c0-0.2-0.1-0.4-0.2-0.4s-0.1-0.1-0.2-0.1c-0.3,0-0.6,0.2-0.9,0.6c-0.3,0.4-0.6,1-0.9,1.7l-1.7,6.1
			C209.9,263.2,210.1,263.2,210.3,263.2z"/>
		<path fill="#FFFFFF" d="M221.5,253.4c0.6,0,1.1,0.2,1.4,0.5c0.3,0.3,0.4,0.8,0.4,1.3c0,0.1,0,0.2,0,0.4c0.2-0.5,0.5-1,0.8-1.3
			c0.3-0.3,0.6-0.5,0.9-0.7c0.3-0.1,0.7-0.2,1.1-0.2c0.4,0,0.7,0.1,1,0.2s0.5,0.4,0.6,0.7c0.1,0.3,0.2,0.6,0.2,0.9
			c0,0.4-0.1,0.8-0.3,1.2s-0.4,0.7-0.8,0.9c-0.3,0.2-0.7,0.3-1.1,0.3c-0.5,0-0.8-0.1-1.1-0.4s-0.4-0.6-0.4-1.1
			c0-0.4,0.1-0.7,0.3-1.1c0.2-0.3,0.4-0.6,0.8-0.9s0.7-0.4,1-0.5c-0.1,0-0.2-0.1-0.3-0.1c-0.4,0-0.8,0.1-1.1,0.2
			c-0.3,0.2-0.7,0.6-1.1,1.2s-0.8,1.6-1.3,3l-1.4,5.4h-3.4l2.3-8.3c0.1-0.2,0.1-0.4,0.1-0.5c0-0.2-0.1-0.3-0.3-0.3
			c-0.2,0-0.4,0.1-0.5,0.3c-0.2,0.2-0.3,0.5-0.5,0.9l-0.4,1.2h-0.4l0.5-1.5C219.1,254,220.1,253.4,221.5,253.4z"/>
		<path fill="#FFFFFF" d="M233.2,263.1c-0.8,0.5-1.8,0.7-2.9,0.7c-0.6,0-1.2-0.1-1.7-0.3s-0.9-0.5-1.2-0.9s-0.4-0.9-0.4-1.5
			c0-1.2,0.3-2.5,1-3.7s1.5-2.2,2.6-2.9s2.3-1.1,3.7-1.1c0.7,0,1.3,0.1,1.7,0.4c0.4,0.3,0.6,0.7,0.6,1.3c0,0.7-0.3,1.4-0.9,2
			s-1.3,1.1-2.2,1.6c-0.9,0.4-1.9,0.8-2.9,1c0,0.3-0.1,0.7-0.1,1c0,0.7,0.1,1.2,0.4,1.4c0.3,0.3,0.7,0.4,1.2,0.4
			c0.3,0,0.7-0.1,1.2-0.3c0.5-0.2,1-0.6,1.4-1l0.3,0.1C234.7,262,234,262.6,233.2,263.1z M232.7,254.6c-0.4,0.5-0.8,1.3-1.2,2.1
			s-0.6,1.7-0.8,2.6c0.7-0.4,1.2-0.8,1.8-1.3c1.2-1.1,1.7-2.4,1.7-3.8c0-0.3-0.1-0.5-0.3-0.5C233.5,253.7,233.1,254,232.7,254.6z"/>
		<path fill="#FFFFFF" d="M238.8,263.4c0.4,0,0.7-0.1,1-0.4c0.3-0.3,0.4-0.6,0.4-1.1c0-0.4-0.1-0.8-0.3-1.3s-0.5-1-0.8-1.6
			c-0.3-0.5-0.5-0.8-0.6-1.1c-0.1-0.2-0.2-0.5-0.3-0.8c-0.1-0.3-0.1-0.6-0.1-0.9c0-0.6,0.1-1,0.4-1.5s0.7-0.8,1.3-1
			c0.6-0.3,1.3-0.4,2.1-0.4c0.9,0,1.7,0.2,2.3,0.5s0.9,0.9,0.9,1.7c0,0.3-0.1,0.5-0.2,0.8s-0.3,0.5-0.5,0.6
			c-0.2,0.2-0.4,0.3-0.7,0.3c-0.4,0-0.7-0.1-0.9-0.4c-0.2-0.3-0.3-0.7-0.3-1.2c0-0.4,0.1-0.7,0.2-1s0.3-0.6,0.4-0.7
			c-0.1-0.1-0.3-0.1-0.5-0.1c-0.4,0-0.8,0.1-1,0.4c-0.2,0.3-0.3,0.6-0.3,1.1c0,0.3,0.1,0.6,0.2,0.9c0.1,0.3,0.3,0.6,0.5,0.9
			s0.3,0.6,0.4,0.7c0.4,0.7,0.7,1.3,0.9,1.8c0.2,0.4,0.3,0.9,0.3,1.3c0,0.5-0.1,1-0.4,1.5c-0.3,0.4-0.7,0.8-1.3,1
			c-0.6,0.3-1.3,0.4-2.1,0.4c-1,0-1.9-0.2-2.5-0.6s-1-1-1-1.9c0-0.5,0.1-0.9,0.4-1.2c0.2-0.3,0.5-0.5,0.9-0.5c0.4,0,0.7,0.2,0.9,0.5
			c0.2,0.3,0.3,0.7,0.3,1.2c0,0.2,0,0.5-0.1,0.7c-0.1,0.2-0.1,0.5-0.2,0.7c-0.1,0.2-0.2,0.4-0.2,0.5
			C238.3,263.4,238.6,263.4,238.8,263.4z"/>
		<path fill="#FFFFFF" d="M247.3,263.4c0.4,0,0.7-0.1,1-0.4c0.3-0.3,0.4-0.6,0.4-1.1c0-0.4-0.1-0.8-0.3-1.3s-0.5-1-0.8-1.6
			c-0.3-0.5-0.5-0.8-0.6-1.1c-0.1-0.2-0.2-0.5-0.3-0.8c-0.1-0.3-0.1-0.6-0.1-0.9c0-0.6,0.1-1,0.4-1.5s0.7-0.8,1.3-1
			c0.6-0.3,1.3-0.4,2.1-0.4c0.9,0,1.7,0.2,2.3,0.5s0.9,0.9,0.9,1.7c0,0.3-0.1,0.5-0.2,0.8s-0.3,0.5-0.5,0.6
			c-0.2,0.2-0.4,0.3-0.7,0.3c-0.4,0-0.7-0.1-0.9-0.4c-0.2-0.3-0.3-0.7-0.3-1.2c0-0.4,0.1-0.7,0.2-1s0.3-0.6,0.4-0.7
			c-0.1-0.1-0.3-0.1-0.5-0.1c-0.4,0-0.8,0.1-1,0.4c-0.2,0.3-0.3,0.6-0.3,1.1c0,0.3,0.1,0.6,0.2,0.9c0.1,0.3,0.3,0.6,0.5,0.9
			s0.3,0.6,0.4,0.7c0.4,0.7,0.7,1.3,0.9,1.8c0.2,0.4,0.3,0.9,0.3,1.3c0,0.5-0.1,1-0.4,1.5c-0.3,0.4-0.7,0.8-1.3,1
			c-0.6,0.3-1.3,0.4-2.1,0.4c-1,0-1.9-0.2-2.5-0.6s-1-1-1-1.9c0-0.5,0.1-0.9,0.4-1.2c0.2-0.3,0.5-0.5,0.9-0.5c0.4,0,0.7,0.2,0.9,0.5
			c0.2,0.3,0.3,0.7,0.3,1.2c0,0.2,0,0.5-0.1,0.7c-0.1,0.2-0.1,0.5-0.2,0.7c-0.1,0.2-0.2,0.4-0.2,0.5
			C246.8,263.4,247.1,263.4,247.3,263.4z"/>
		<path fill="#FFFFFF" d="M264.6,260.4l-0.5,1.5c-0.2,0.7-0.6,1.2-1.1,1.5c-0.5,0.3-1,0.5-1.6,0.5c-0.8,0-1.4-0.2-1.7-0.7
			c-0.1-0.3-0.2-0.6-0.2-0.9c0-0.3,0-0.6,0.1-1l0.4-1.6c-0.5,1.2-0.9,2.1-1.4,2.7s-0.9,1.1-1.4,1.3s-1,0.3-1.6,0.3
			c-0.6,0-1-0.1-1.3-0.4c-0.3-0.3-0.5-0.7-0.5-1.2c0-0.4,0.1-0.8,0.2-1.3l1.9-5.7c0.1-0.2,0.1-0.3,0.1-0.5c0-0.2-0.1-0.3-0.3-0.3
			c-0.4,0-0.7,0.4-1,1.2l-0.4,1.1h-0.4l0.5-1.4c0.5-1.3,1.4-2,2.7-2c0.6,0,1.1,0.2,1.5,0.5c0.4,0.3,0.5,0.8,0.5,1.3
			c0,0.4-0.1,0.9-0.3,1.5l-1.6,4.9c-0.1,0.3-0.2,0.6-0.2,0.7c0,0.2,0.1,0.3,0.2,0.3c0.3,0,0.7-0.4,1.2-1.2c0.5-0.8,1-1.8,1.5-3
			c0.5-1.2,1-2.5,1.3-3.8l0.3-1c1.4,0,2.6-0.1,3.5-0.3l-2.4,8.5c-0.1,0.3-0.1,0.4-0.1,0.5c0,0.2,0.1,0.3,0.3,0.3
			c0.2,0,0.4-0.1,0.5-0.3c0.2-0.2,0.3-0.5,0.5-0.9l0.4-1.2H264.6z"/>
		<path fill="#FFFFFF" d="M269.1,253.4c0.6,0,1.1,0.2,1.4,0.5c0.3,0.3,0.4,0.8,0.4,1.3c0,0.1,0,0.2,0,0.4c0.2-0.5,0.5-1,0.8-1.3
			c0.3-0.3,0.6-0.5,0.9-0.7c0.3-0.1,0.7-0.2,1.1-0.2c0.4,0,0.7,0.1,1,0.2s0.5,0.4,0.6,0.7c0.1,0.3,0.2,0.6,0.2,0.9
			c0,0.4-0.1,0.8-0.3,1.2s-0.4,0.7-0.8,0.9c-0.3,0.2-0.7,0.3-1.1,0.3c-0.5,0-0.8-0.1-1.1-0.4s-0.4-0.6-0.4-1.1
			c0-0.4,0.1-0.7,0.3-1.1c0.2-0.3,0.4-0.6,0.8-0.9s0.7-0.4,1-0.5c-0.1,0-0.2-0.1-0.3-0.1c-0.4,0-0.8,0.1-1.1,0.2
			c-0.3,0.2-0.7,0.6-1.1,1.2s-0.8,1.6-1.3,3l-1.4,5.4h-3.4l2.3-8.3c0.1-0.2,0.1-0.4,0.1-0.5c0-0.2-0.1-0.3-0.3-0.3
			c-0.2,0-0.4,0.1-0.5,0.3c-0.2,0.2-0.3,0.5-0.5,0.9l-0.4,1.2h-0.4l0.5-1.5C266.7,254,267.6,253.4,269.1,253.4z"/>
		<path fill="#FFFFFF" d="M280.7,263.1c-0.8,0.5-1.8,0.7-2.9,0.7c-0.6,0-1.2-0.1-1.7-0.3s-0.9-0.5-1.2-0.9s-0.4-0.9-0.4-1.5
			c0-1.2,0.3-2.5,1-3.7s1.5-2.2,2.6-2.9s2.3-1.1,3.7-1.1c0.7,0,1.3,0.1,1.7,0.4c0.4,0.3,0.6,0.7,0.6,1.3c0,0.7-0.3,1.4-0.9,2
			s-1.3,1.1-2.2,1.6c-0.9,0.4-1.9,0.8-2.9,1c0,0.3-0.1,0.7-0.1,1c0,0.7,0.1,1.2,0.4,1.4c0.3,0.3,0.7,0.4,1.2,0.4
			c0.3,0,0.7-0.1,1.2-0.3c0.5-0.2,1-0.6,1.4-1l0.3,0.1C282.2,262,281.6,262.6,280.7,263.1z M280.3,254.6c-0.4,0.5-0.8,1.3-1.2,2.1
			s-0.6,1.7-0.8,2.6c0.7-0.4,1.2-0.8,1.8-1.3c1.2-1.1,1.7-2.4,1.7-3.8c0-0.3-0.1-0.5-0.3-0.5C281.1,253.7,280.7,254,280.3,254.6z"/>
	</g>
</g>
</svg>
