<?xml version="1.0" encoding="utf-8"?>
<!-- Generator: Adobe Illustrator 17.1.0, SVG Export Plug-In . SVG Version: 6.00 Build 0)  -->
<!DOCTYPE svg PUBLIC "-//W3C//DTD SVG 1.1//EN" "http://www.w3.org/Graphics/SVG/1.1/DTD/svg11.dtd">
<svg version="1.1" xmlns="http://www.w3.org/2000/svg" xmlns:xlink="http://www.w3.org/1999/xlink" x="0px" y="0px"
   viewBox="0 0 1920 1080" style="enable-background:new 0 0 1920 1080;" xml:space="preserve">
<g id="Layer_7">
  <rect x="1242.9" y="118.4" style="fill:#BE2A36;" width="414.7" height="350.4"/>
</g>
<g id="Layer_6">
  <g>
    <path d="M1494.7,428.2c0.1-1.2,0.3-2.2,0.2-3.2c-0.1-2.4-0.3-4.8-0.4-7.2c-0.2-3.7-1.6-6.9-4.2-9.6c-1.4-1.5-2.6-3.4-4.2-4.6
      c-2.5-1.7-5.1-3.3-8.2-4.2c-4.2-1.2-8.3-0.1-12.4-0.1c-1.6,0-2.4-0.2-2.5-2.1c-0.3-3.3-1.5-6.3-3.9-8.7c-2.3-2.3-4.4-5-7-6.9
      c-2.3-1.7-5-2.9-7.9-3.9c-4.1-1.5-8.1-0.1-12.1-0.1c-1.8,0-2.8-0.2-2.6-2.2c0-0.5-0.1-1-0.1-1.5c0.3-4.7-2.1-8.5-4.3-12.3
      c-1-1.6-1.9-3.4-3.2-4.7c-1.4-1.3-3.1-2.3-4.9-3.1c-3-1.3-6.2-2.4-9.3-3.5c-0.5-0.2-1.1-0.1-1.7-0.1c-2.3,0.1-4.6,0.2-6.8,0.5
      c-1.8,0.2-2.7-0.2-2.6-2.2c0.1-1.6-0.2-3.3-0.3-4.9c0-3.4-2.1-6.1-3.2-9.2c-1.5-4.4-5.3-6.2-8.3-8.9c-2.7-2.4-5.8-4.4-9.4-5.3
      c-0.5-0.1-1,0-1.5,0c-5.2,0.3-10.4,0.6-15.5,1.1c-2.9,0.3-5.5,1.3-7.7,3.6c-2.7,2.9-5.7,5.5-8.2,7.8c-5.4-3.5-10.6-6.8-15.8-10.3
      c-12.7-8.7-22.9-19.6-29.1-33.7c-4.3-9.8-5.8-20.2-4.8-30.8c1.3-13.5,6.2-25.8,12.8-37.5c8.4-15.1,19.7-27.6,33.4-37.9
      c7.2-5.4,14.9-9.9,23.3-13.1c9.2-3.5,18.8-5.5,28.8-5c7.8,0.4,15.3,2.2,22.6,4.9c9.8,3.7,19.6,7.5,29.6,10.7
      c5.9,1.9,12.1,2.9,18.2,4.3c0.3,0.1,0.5,0.2,1,0.4c-1.3,1.8-2.5,3.4-3.7,5.1c-9.8,14.1-19.6,28.2-29.2,42.4
      c-2.2,3.2-3.6,6.9-5.3,10.4c-0.2,0.5-0.4,1.1-0.3,1.6c1.2,6,2.1,12,5.7,17.2c4.6,6.5,11,9.6,18.8,9.5c4.7-0.1,9.4-1.4,14-2.2
      c0.8-0.1,1.6-0.6,2.3-0.5c9,1.5,15.7-3.3,22.2-8.3c7.6-5.9,13.7-13.1,19.5-20.7c0.4-0.6,0.9-1.1,1.5-1.8c3.8,2.4,7.6,4.6,11.2,7.1
      c13.9,9.3,28,18.5,41.7,28.1c10.5,7.3,20.6,15.1,30,23.9c3.5,3.3,4.3,6.8,3.3,11.3c-0.9,4-2.1,7.6-4.9,10.7
      c-3.3,3.8-12.1,5.4-17.3,1.6c-17.1-12.5-34.4-24.6-51.8-36.6c-6.1-4.2-12.7-7.7-19.1-11.6c-1.1-0.7-1.9-0.6-2.7,0.4
      c-1,1.2-2,2.4-3.1,3.7c4.8,3.4,9.5,6.6,14.1,10c14.3,10.8,28.6,21.5,42.6,32.7c5.8,4.6,11.3,9.9,15.7,15.8
      c3.7,5.1,4.9,11.7,2.2,18c-0.7,1.8-2.6,3.6-4.4,4.3c-5.3,2-10.6,2-15.4-1.8c-24.7-19.2-49.5-38.4-74.3-57.6
      c-1.2-1-2.1-0.9-3.1,0.1c-1.3,1.4-2.7,2.7-4.1,4c-1.2,1.2-1.2,2,0.3,3.2c15.9,11.9,31.3,24.3,45.7,38c6.4,6,12.1,12.7,17.9,19.4
      c4.7,5.4,5.9,11.8,3.9,18.7c-1.2,4-3.9,6.5-8.1,7.2c-3.8,0.6-7.5,0.2-11.1-1.3c-1.2-0.5-2.3-1.6-3.3-2.6
      c-14.9-14-29.8-28.1-44.8-41.9c-5.7-5.2-11.8-10-17.9-14.8c-3.5-2.8-4.4-2.6-7.6,0.6c-3.8,3.9-3.8,3.9,0,7.8
      c13.4,13.5,27,26.9,40.3,40.5c7.6,7.7,14.8,15.7,22.1,23.7c1,1.1,1.6,2.7,1.7,4.2c0.6,5.3,0.9,10.5-0.6,15.8
      C1505.9,424.9,1501,429.1,1494.7,428.2z"/>
    <g>
      <path d="M1616.6,276.6c-5,3.2-11,3-16.9,3.4c-2.2,0.2-4.4,0.2-6.5-0.2c-3.2-0.5-6.3-1.7-9.5-2.2c-5.3-0.9-9-4.7-13.2-7.4
        c-2.9-1.8-5.8-3.7-8.6-5.7c-3.9-2.7-7.8-5.4-11.6-8.2c-2.4-1.7-4.6-3.7-7-5.5c-4.5-3.5-9-6.8-13.4-10.4c-3-2.5-5.7-5.3-8.5-8
        c-1.6-1.5-3.2-3.1-4.7-4.7c-0.4-0.4-0.5-1.4-0.3-1.9c2.6-4.5,5.3-9,7.9-13.5c1.8-3,3.6-6,5.1-9.1c1.1-2.3,1.8-4.8,2.6-7.2
        c0.9-2.7,1.7-5.3,2.2-8.2c-1.8,2.8-3.6,5.5-5.5,8.3c-1.8,2.8-3.7,5.6-5.6,8.3c-3.1,4.4-6.3,8.8-9.5,13.3
        c-2.3,3.3-4.7,6.5-7.1,9.7c-2.7,3.5-5.4,6.9-8.3,10.2c-4.1,4.7-8.4,9.2-13.6,12.8c-2.9,2.1-5.9,4.1-9,5.8
        c-2.3,1.2-4.9,1.9-7.4,2.8c-2.6,0.9-5.3,1.7-7.9,2.5c-0.6,0.2-1.4,0.4-1.9,0.1c-3.1-1.6-6.2,0-9.3-0.4c-5.4-0.6-11-0.8-15.3-4.9
        c-1.8-1.7-3-3.5-3.1-6.1c0-1.5-0.2-3-0.3-4.5c-0.2-2.7,0.6-5,2.4-7.2c3.5-4.3,6.6-9,10.1-13.4c2.4-3,5-5.9,7.6-8.8
        c4.1-4.5,8.2-9.1,12.5-13.4c4.4-4.4,8.6-9,13.7-12.8c6.4-4.6,12.5-9.7,18.9-14.2c3.5-2.5,7.6-4.3,11.5-6.2c3-1.4,6.1-2.4,9.2-3.7
        c6.6-2.7,13.6-2.2,20.4-2.8c3.8-0.3,7.6-0.3,11.4-0.2c2,0.1,3.9,0.9,5.9,1.4c2.3,0.6,4.7,1,7,1.8c3.2,1.1,6.4,2.2,9.4,3.9
        c4.2,2.4,8.4,4.9,12.1,8c3.6,3,6.5,6.7,9.6,10.3c2.2,2.6,4,5.6,6.3,8.1c2.6,2.7,4.7,5.8,6.7,8.9c2.2,3.4,4.5,6.8,6.6,10.3
        c0.8,1.3,1,2.9,1.5,4.4c0.8,2.4,1.6,4.7,2.4,7.1c0.1,0.3,0.2,0.5,0.2,0.8c0.7,6.7,1.5,13.3,1.9,20c0.3,4.3,0.7,8.7,0,12.9
        c-0.5,2.9-0.1,5.7-0.3,8.5C1617.5,271.7,1617,274,1616.6,276.6z"/>
      <path d="M1346.3,349c0.2-6.2,2.9-12.5,9.5-16.8c3.5-2.3,7.2-4.2,11.4-4c8.8,0.4,17.7,4.9,21,15.3c0.6,2.1,2.6,3.7,2,6.2
        c-2,7.6-4.4,15-12.2,18.8c-2.2,1.1-4.5,2.1-6.8,3c-3,1.1-5.9-0.2-8.7-1C1352.9,368,1346.9,360.4,1346.3,349z"/>
      <path d="M1402.2,357.3c1.3,0.4,2.5,1.1,3.7,1.2c3.5,0.2,6.3,2,8.9,3.9c3,2.2,4.9,5.2,6.1,8.8c0.5,1.4,1.4,2.8,1.4,4.1
        c-0.3,7.8-3,14.3-10.3,18.2c-1.9,1-3.8,2.1-5.9,2.8c-2,0.6-3.9-0.3-5.9-0.6c-2.6-0.4-4.6-1.4-6.7-2.6c-4.1-2.3-6.9-5.8-8.2-10.4
        c-0.2-0.8-0.7-1.5-1.1-2.2c-0.9-1.5-1.1-2.9-0.3-4.6c0.8-1.5,1-3.4,1.5-5c1.3-4.1,4-7.1,7.4-9.6
        C1395.7,359.3,1399,358.6,1402.2,357.3z"/>
      <path d="M1418.3,404.8c0.3-1.2,0.4-2,0.6-2.8c1.6-6,3.9-11.6,10-14.5c2.8-1.3,5.4-3.7,8.6-3c6.5,1.4,12.6,3.8,15.8,10.2
        c1.4,2.7,3.9,5.3,3.1,8.5c-1.3,5.4-2.8,10.9-7.8,14.4c-1.7,1.2-3.8,2-5.7,3c-1.7,0.9-3.2,2.5-5.3,1.8c-3.8-1.4-8-1.8-11.4-4.5
        c-3.1-2.6-5.2-5.7-6.4-9.5C1419.5,407.1,1418.7,405.9,1418.3,404.8z"/>
      <path d="M1471.7,438.5c-5.9,0-12.8-4.6-14.8-10.1c-0.6-1.6-1.8-3.1-1.8-4.6c0-2.2,0.7-4.6,1.4-6.7c1.7-4.7,4.9-8,9.8-9.6
        c0.7-0.2,1.3-0.8,2.1-1.1c0.8-0.3,1.9-1,2.5-0.7c4.6,1.7,9.8,2.4,12.8,7c1.9,2.8,3.4,5.7,3.6,9.1c0.2,6.4-4.6,12.9-10.6,15
        C1475.1,437.5,1473.4,438,1471.7,438.5z"/>
    </g>
  </g>
</g>
<g id="Layer_5">
  
    <text transform="matrix(1 0 0 1 201.9097 468.7476)" style="fill:#BE2A36; font-family:'FranklinGothic-Medium'; font-size:525.2711; letter-spacing:-13;">WEb</text>
</g>
<g id="Layer_4">
  
    <text transform="matrix(1 0 0 1 653.5376 887.9111)" style="fill:#BE2A36; font-family:'FranklinGothic-Medium'; font-size:525.2711; letter-spacing:-13;">ACTs</text>
</g>
<g id="Layer_3">
  <rect x="217" y="536.5" style="fill:#BE2A36;" width="251" height="348.3"/>
</g>
<g id="Layer_2">
  <rect x="495.3" y="536.5" style="fill:#BE2A36;" width="125.5" height="348.3"/>
</g>
</svg>
