<?xml version="1.0" encoding="utf-8"?>
<!-- Generator: Adobe Illustrator 18.1.1, SVG Export Plug-In . SVG Version: 6.00 Build 0)  -->
<svg version="1.1" xmlns="http://www.w3.org/2000/svg" xmlns:xlink="http://www.w3.org/1999/xlink" x="0px" y="0px"
	 viewBox="0 0 745.5 433.2" enable-background="new 0 0 745.5 433.2" xml:space="preserve">
<g id="Strip">
	<rect x="405.8" y="179.6" fill="#BE3E26" width="339.7" height="81.3"/>
</g>
<g id="ring">
	<g id="Layer_6">
	</g>
	<circle fill="#084F6F" cx="212.9" cy="217.8" r="192.9"/>
	<circle fill="none" stroke="#296B83" stroke-width="15" stroke-miterlimit="10" cx="212.9" cy="217.8" r="196.7"/>
</g>
<g id="type">
	<g>
		<path fill="#FFFFFF" d="M459.2,219.4h0.2l8.9-22.8h11.3l-15.2,34.2v18.9H454v-19.5l-14.9-33.6h11.3L459.2,219.4z"/>
		<path fill="#FFFFFF" d="M512.8,226.4H495v15h21v8.3h-31.4v-53.1h31.3v8.3H495v13.2h17.8V226.4z"/>
		<path fill="#FFFFFF" d="M546,238.4h-14l-2.8,11.3h-10.5l15-53.1h10.8l14.9,53.1h-10.5L546,238.4z M534.1,230.1h9.8l-4.8-18.8h-0.2
			L534.1,230.1z"/>
		<path fill="#FFFFFF" d="M574.6,228.6v21.1h-10.4v-53.1h17.3c5.2,0,9.3,1.4,12.3,4.1s4.5,6.6,4.5,11.5c0,2.8-0.6,5.2-1.9,7.2
			c-1.2,2-3.1,3.6-5.4,4.8c2.7,0.9,4.7,2.5,5.9,4.6s1.8,4.8,1.8,8v3.8c0,1.5,0.2,3,0.5,4.7c0.3,1.7,0.9,2.9,1.8,3.6v0.8h-10.7
			c-0.9-0.8-1.4-2-1.6-3.8c-0.2-1.8-0.3-3.5-0.3-5.4v-3.6c0-2.7-0.5-4.7-1.6-6.2c-1.1-1.5-2.6-2.2-4.6-2.2H574.6z M574.6,220.3h6.9
			c2.1,0,3.7-0.6,4.8-1.9c1.1-1.3,1.6-3.1,1.6-5.5c0-2.4-0.5-4.4-1.6-5.8c-1.1-1.4-2.7-2.2-4.8-2.2h-7V220.3z"/>
	</g>
	<g>
		<path fill="#FFFFFF" d="M468.8,298.3h0.1l2.8-16.4h4.9l-5,25.7h-4.7l-3.6-15.7h-0.1l-3.6,15.7h-4.7l-5-25.7h4.9l2.8,16.4h0.1
			l3.7-16.4h3.6L468.8,298.3z"/>
		<path fill="#FFFFFF" d="M490.5,302.1h-6.8l-1.4,5.5h-5.1l7.2-25.7h5.2l7.2,25.7h-5.1L490.5,302.1z M484.8,298.1h4.7l-2.3-9.1h-0.1
			L484.8,298.1z"/>
		<path fill="#FFFFFF" d="M505.1,307.6h-5v-25.7h5V307.6z"/>
		<path fill="#FFFFFF" d="M524.8,285.9H519v21.7h-5v-21.7h-5.7v-4h16.5V285.9z"/>
		<path fill="#FFFFFF" d="M550.6,296.9h-8.7v10.7h-5v-25.7h15.3v4h-10.2v7h8.7V296.9z"/>
		<path fill="#FFFFFF" d="M573,298.4c0,3-0.8,5.4-2.5,7.1c-1.6,1.7-3.8,2.5-6.5,2.5s-4.9-0.8-6.5-2.5c-1.6-1.7-2.4-4-2.4-7.1v-7.2
			c0-3,0.8-5.3,2.4-7.1c1.6-1.7,3.8-2.6,6.5-2.6c2.7,0,4.9,0.9,6.5,2.6c1.6,1.7,2.5,4.1,2.5,7.1V298.4z M568,291.1
			c0-1.8-0.3-3.2-1-4.2c-0.7-0.9-1.7-1.4-3-1.4c-1.3,0-2.3,0.5-3,1.4c-0.7,0.9-1,2.3-1,4.2v7.2c0,1.9,0.3,3.3,1,4.2
			c0.7,0.9,1.7,1.4,3,1.4c1.3,0,2.3-0.5,3-1.4c0.7-0.9,1-2.3,1-4.2V291.1z"/>
		<path fill="#FFFFFF" d="M582.2,297.4v10.2h-5v-25.6h8.4c2.5,0,4.5,0.7,5.9,2s2.2,3.2,2.2,5.6c0,1.3-0.3,2.5-0.9,3.5
			c-0.6,1-1.5,1.7-2.6,2.3c1.3,0.4,2.3,1.2,2.8,2.2c0.6,1,0.9,2.3,0.9,3.9v1.8c0,0.7,0.1,1.5,0.2,2.3c0.2,0.8,0.5,1.4,0.9,1.8v0.4
			h-5.2c-0.4-0.4-0.7-1-0.8-1.8c-0.1-0.8-0.2-1.7-0.2-2.6v-1.7c0-1.3-0.3-2.3-0.8-3c-0.5-0.7-1.3-1.1-2.2-1.1H582.2z M582.2,293.4
			h3.3c1,0,1.8-0.3,2.3-0.9c0.5-0.6,0.8-1.5,0.8-2.7c0-1.2-0.3-2.1-0.8-2.8c-0.5-0.7-1.3-1-2.3-1h-3.4V293.4z"/>
		<path fill="#FFFFFF" d="M614.6,296.9h-2.2v10.7h-5v-25.7h5v10.4h1.6l5-10.4h6.2l-7,11.7l7.6,13.9h-6.1L614.6,296.9z"/>
		<path fill="#FFFFFF" d="M633.6,307.6h-5v-25.7h5V307.6z"/>
		<path fill="#FFFFFF" d="M638.6,307.6v-25.7h7.8c2.6,0,4.8,1,6.5,3c1.7,2,2.6,4.6,2.6,7.7v4.3c0,3.1-0.9,5.7-2.6,7.7
			c-1.7,2-3.9,3-6.5,3H638.6z M643.6,285.9v17.7h2.4c1.4,0,2.5-0.6,3.2-1.8c0.8-1.2,1.1-2.8,1.1-4.8v-4.4c0-2-0.4-3.6-1.1-4.8
			c-0.8-1.2-1.8-1.8-3.2-1.8H643.6z"/>
		<path fill="#FFFFFF" d="M677.8,307.6h-5l-7.8-16.4l-0.1,0v16.4h-5v-25.7h5l7.8,16.4l0.1,0v-16.4h5V307.6z"/>
		<path fill="#FFFFFF" d="M696.2,296.3h-8.6v7.3h10.1v4h-15.2v-25.7h15.1v4h-10.1v6.4h8.6V296.3z"/>
		<path fill="#FFFFFF" d="M709.2,292.9h0.1l4.3-11h5.4l-7.3,16.5v9.1h-5v-9.4l-7.2-16.2h5.5L709.2,292.9z"/>
		<path fill="#FFFFFF" d="M733.1,300.9c0-1-0.3-1.8-0.8-2.4c-0.5-0.6-1.4-1.2-2.7-1.7c-2.7-0.9-4.7-2-6-3.2c-1.3-1.2-2-2.8-2-5
			c0-2.1,0.8-3.8,2.3-5.1c1.6-1.3,3.5-2,5.9-2c2.4,0,4.4,0.7,6,2.2c1.5,1.5,2.3,3.3,2.2,5.6l0,0.1h-4.9c0-1.2-0.3-2.1-0.9-2.9
			c-0.6-0.7-1.4-1.1-2.5-1.1c-1,0-1.8,0.3-2.3,0.9c-0.6,0.6-0.8,1.4-0.8,2.3c0,0.8,0.3,1.5,0.9,2.1c0.6,0.5,1.7,1.2,3.2,1.8
			c2.4,0.8,4.3,1.9,5.5,3.1c1.2,1.3,1.8,3,1.8,5.1c0,2.2-0.7,4-2.2,5.2c-1.5,1.3-3.4,1.9-5.9,1.9c-2.4,0-4.6-0.7-6.4-2.1
			c-1.8-1.4-2.7-3.5-2.6-6.1l0-0.1h4.9c0,1.6,0.3,2.7,1,3.4c0.7,0.7,1.7,1,3,1c1.1,0,1.8-0.3,2.4-0.8
			C732.8,302.6,733.1,301.8,733.1,300.9z"/>
	</g>
	<g>
		<path fill="#FFFFFF" d="M115.3,135.9c8.1,0,15.3,1.1,21.6,3.4c6.3,2.3,11.6,5.4,16,9.3c4.3,3.9,7.6,8.4,9.9,13.6
			c2.2,5.1,3.4,10.6,3.4,16.3c0,5.2-0.5,9.7-1.6,13.7c-1.1,3.9-2.6,7.4-4.7,10.2c-2.1,2.9-4.6,5.3-7.7,7.4c-3,2-6.5,3.7-10.4,5.1
			c18.1,6.3,27.2,18.6,27.2,37c0,8.7-1.6,16.3-4.7,22.7c-3.1,6.5-7.4,11.8-12.7,16.1c-5.3,4.3-11.4,7.5-18.4,9.6
			c-7,2.1-14.3,3.2-21.8,3.2c-7.8,0-14.7-0.8-20.8-2.5s-11.5-4.3-16.2-7.9c-4.7-3.6-8.9-8.1-12.4-13.7c-3.6-5.5-6.7-12.1-9.3-19.8
			l15.5-6.3c1.4-0.6,2.7-1,4-1.2c1.3-0.2,2.6-0.3,3.9-0.3c2.4,0,4.6,0.5,6.5,1.4c1.9,0.9,3.4,2.3,4.3,4.1c3.4,6.2,7,10.7,10.7,13.6
			c3.8,2.8,8.2,4.2,13.3,4.2c3.9,0,7.3-0.7,10.2-2c2.9-1.3,5.3-3,7.2-5.1c1.9-2.1,3.4-4.4,4.3-7c1-2.6,1.5-5.3,1.5-8
			c0-3.5-0.2-6.7-0.7-9.5c-0.5-2.8-1.9-5.2-4.1-7.3c-2.3-2-5.6-3.6-10.2-4.7c-4.5-1.1-10.9-1.6-19-1.6v-24.1
			c6.8,0,12.3-0.5,16.5-1.6c4.2-1,7.4-2.5,9.7-4.3c2.3-1.8,3.8-4.1,4.6-6.7c0.7-2.6,1.1-5.5,1.1-8.7c0-6.4-1.6-11.4-4.7-14.9
			c-3.1-3.5-7.9-5.2-14.2-5.2c-2.6,0-5,0.4-7.2,1.1c-2.2,0.8-4.1,1.8-5.9,3c-1.7,1.3-3.2,2.8-4.4,4.5c-1.2,1.7-2.2,3.6-3,5.6
			c-1.2,3.4-2.7,5.8-4.6,7.3c-1.8,1.5-4.3,2.2-7.5,2.2c-0.8,0-1.6,0-2.4-0.1c-0.9-0.1-1.7-0.2-2.6-0.3l-18.5-3.3
			c1.2-8.2,3.5-15.3,6.9-21.4c3.4-6.1,7.6-11.1,12.7-15.2s10.9-7.1,17.4-9.1C100.8,136.9,107.8,135.9,115.3,135.9z"/>
		<path fill="#FFFFFF" d="M187.3,283.9c0-2.7,0.5-5.2,1.5-7.5c1-2.3,2.4-4.3,4.2-6.1c1.8-1.7,3.8-3.1,6.2-4.1c2.4-1,5-1.5,7.9-1.5
			c2.8,0,5.4,0.5,7.8,1.5c2.4,1,4.5,2.4,6.3,4.1c1.8,1.7,3.2,3.8,4.2,6.1c1,2.3,1.5,4.8,1.5,7.5c0,2.7-0.5,5.2-1.5,7.6
			c-1,2.4-2.4,4.4-4.2,6.1c-1.8,1.7-3.9,3.1-6.3,4c-2.4,1-5,1.5-7.8,1.5c-2.9,0-5.5-0.5-7.9-1.5c-2.4-1-4.5-2.3-6.2-4
			c-1.8-1.7-3.2-3.8-4.2-6.1C187.8,289.1,187.3,286.6,187.3,283.9z"/>
		<path fill="#FFFFFF" d="M316.7,197.7c5.9,0,11.8,1,17.5,2.9c5.8,2,10.9,4.9,15.5,9c4.6,4,8.3,9.2,11.1,15.4s4.2,13.5,4.2,21.9
			c0,7.6-1.4,14.9-4.3,21.8c-2.9,6.9-6.9,12.9-12.1,18c-5.2,5.1-11.5,9.2-18.8,12.2c-7.4,3-15.5,4.5-24.4,4.5
			c-9.2,0-17.4-1.4-24.6-4.3c-7.3-2.9-13.4-6.9-18.5-12.1s-8.9-11.4-11.6-18.6c-2.7-7.2-4-15.1-4-23.7c0-8.2,1.6-16.3,4.7-24.4
			c3.1-8.1,7.8-16.3,13.9-24.8l36.9-49.8c1.6-2.2,4.1-4.1,7.4-5.7c3.3-1.5,7-2.3,11.2-2.3h31l-48.6,58c-0.8,0.8-1.5,1.7-2.2,2.5
			c-0.7,0.9-1.4,1.7-2.1,2.5c2.6-1,5.4-1.7,8.3-2.2C310.3,198,313.4,197.7,316.7,197.7z M280.2,249.4c0,4,0.5,7.7,1.5,10.9
			c1,3.2,2.5,6,4.5,8.3c2,2.3,4.6,4.1,7.7,5.3c3.1,1.2,6.7,1.9,10.9,1.9c3.6,0,7-0.7,10.1-2c3.1-1.4,5.8-3.2,8-5.6s4-5.1,5.3-8.3
			c1.3-3.2,2-6.7,2-10.4c0-4.2-0.6-7.9-1.9-11.2c-1.2-3.3-3-6.1-5.2-8.3s-5-4-8.2-5.2c-3.2-1.2-6.7-1.8-10.6-1.8
			c-3.5,0-6.8,0.6-9.7,1.9c-2.9,1.2-5.5,3-7.6,5.3c-2.1,2.3-3.8,5.1-5,8.3C280.8,241.7,280.2,245.3,280.2,249.4z"/>
	</g>
	<g>
		<path fill="#FFFFFF" d="M458.1,325.5c1-0.8,2.3-1.2,3.9-1.2c0.8,0,1.6,0.1,2.2,0.4c0.6,0.2,1.1,0.6,1.4,1c0.3,0.4,0.5,1,0.5,1.5
			c0,0.4-0.1,0.8-0.4,1.2c-0.2,0.4-0.6,0.7-1,1c-0.4,0.3-0.9,0.4-1.5,0.4c-0.6,0-1.2-0.2-1.5-0.5c-0.4-0.3-0.6-0.7-0.6-1.3
			c0-0.7,0.2-1.3,0.6-1.8c0.4-0.5,1-1,1.7-1.2c-0.2-0.1-0.5-0.2-0.7-0.2c-0.5,0-0.9,0.1-1.3,0.4c-0.5,0.4-0.9,1.3-1.3,2.6l-0.9,3.5
			h2.6l-0.2,0.5h-2.6l-4.6,17.4c-1.7,0-3.3,0.1-4.7,0.4l4.8-17.7h-2l0.2-0.5h2C455.6,328.5,456.7,326.6,458.1,325.5z"/>
		<path fill="#FFFFFF" d="M462.5,336.2c0.7-1.5,1.7-2.8,3.1-3.8c1.4-1,3-1.5,5-1.5c1.5,0,2.7,0.4,3.4,1.1c0.8,0.8,1.2,1.9,1.2,3.3
			c0,1.5-0.3,3-1,4.5s-1.7,2.8-3.1,3.8c-1.4,1-3,1.5-5,1.5c-1.5,0-2.7-0.4-3.4-1.1c-0.8-0.8-1.2-1.9-1.2-3.3
			C461.5,339.2,461.8,337.7,462.5,336.2z M468.6,333.3c-0.7,1.3-1.4,2.9-1.9,4.7s-0.8,3.5-0.8,5.1c0,0.5,0,0.9,0.1,1.1
			c0.1,0.2,0.2,0.3,0.4,0.3c0.5,0,1.1-0.6,1.8-1.9s1.4-2.8,1.9-4.6c0.5-1.8,0.8-3.6,0.8-5.2c0-0.6,0-1-0.1-1.2
			c-0.1-0.2-0.2-0.3-0.3-0.3C469.9,331.4,469.3,332,468.6,333.3z"/>
		<path fill="#FFFFFF" d="M481.6,330.8c0.9,0,1.5,0.2,1.8,0.7c0.4,0.5,0.6,1.1,0.6,1.8c0,0.1,0,0.3,0,0.5c0.3-0.7,0.7-1.3,1.1-1.8
			c0.4-0.4,0.8-0.7,1.2-0.9c0.4-0.2,0.9-0.3,1.5-0.3c0.5,0,1,0.1,1.4,0.3c0.4,0.2,0.7,0.5,0.9,0.9c0.2,0.4,0.3,0.8,0.3,1.3
			c0,0.6-0.1,1.1-0.4,1.6s-0.6,0.9-1,1.2c-0.4,0.3-0.9,0.4-1.5,0.4c-0.6,0-1.1-0.2-1.5-0.5c-0.3-0.3-0.5-0.8-0.5-1.5
			c0-0.5,0.1-1,0.4-1.4c0.3-0.5,0.6-0.8,1-1.2c0.4-0.3,0.9-0.5,1.4-0.6c-0.2-0.1-0.3-0.1-0.4-0.1c-0.6,0-1.1,0.1-1.5,0.3
			c-0.4,0.2-0.9,0.8-1.5,1.7s-1.1,2.2-1.7,4l-1.9,7.3h-4.6l3.2-11.3c0.1-0.3,0.1-0.5,0.1-0.7c0-0.3-0.1-0.4-0.3-0.4
			c-0.3,0-0.5,0.1-0.7,0.4s-0.5,0.7-0.7,1.3l-0.6,1.6H477l0.7-2C478.4,331.7,479.6,330.8,481.6,330.8z"/>
		<path fill="#FFFFFF" d="M525.5,326.4c0.8,0,1.4,0,1.9-0.1l-0.1,0.5c-0.5,0.1-0.9,0.3-1.2,0.5c-0.3,0.2-0.7,0.5-1,0.9
			c-0.4,0.4-0.7,1-1.2,1.7l-8.5,14.9h-1.9l-1.4-11.5l-7,11.5h-2l-2-16.4c-0.1-0.6-0.2-1-0.5-1.2s-0.5-0.4-0.9-0.4l0.1-0.5
			c1,0.1,2.4,0.1,4.4,0.1c1.6,0,2.9,0,3.7-0.1l-0.1,0.5c-0.3,0-0.6,0.1-0.8,0.2c-0.2,0.1-0.3,0.3-0.4,0.5c-0.1,0.2-0.1,0.6-0.1,1
			c0,0.2,0,0.4,0,0.5l1.1,10.5l4.3-6.9l-0.5-4.1c-0.1-0.6-0.2-1-0.4-1.2c-0.2-0.3-0.4-0.4-0.7-0.4l0.1-0.5c0.9,0.1,2.3,0.1,4.1,0.1
			c2,0,3.5,0,4.5-0.1l-0.1,0.5c-0.5,0-0.9,0.1-1.2,0.2c-0.3,0.1-0.5,0.2-0.7,0.5s-0.2,0.6-0.2,1c0,0.2,0,0.4,0,0.5l1.1,10.3l5.5-9.6
			c0.4-0.6,0.5-1.1,0.5-1.5c0-0.4-0.2-0.7-0.6-1s-1-0.3-1.7-0.4l0.1-0.5C522.3,326.3,523.5,326.4,525.5,326.4z"/>
		<path fill="#FFFFFF" d="M538.9,340.5l-0.6,1.9c-0.6,1.8-1.8,2.7-3.7,2.7c-0.9,0-1.6-0.2-2.1-0.7s-0.7-1-0.7-1.8
			c0-0.6,0.1-1.3,0.4-2l2.2-6.7c0.2-0.4,0.2-0.8,0.2-1c0-0.3-0.1-0.4-0.3-0.4c-0.4,0-0.9,0.4-1.5,1.3c-0.6,0.9-1.2,2.1-1.8,3.6
			s-1.2,3-1.8,4.7l-0.7,2.5l0,0.1v0l0,0.1H524l5.1-17.3c0.1-0.3,0.1-0.6,0.1-0.7c0-0.3-0.1-0.6-0.4-0.8c-0.3-0.2-0.7-0.2-1.4-0.2
			l0.2-0.5c1.4,0,2.6-0.1,3.7-0.3c1.1-0.2,2.2-0.4,3.3-0.8l-3.4,11.5c0.6-1.2,1.1-2.2,1.7-2.9s1.1-1.1,1.7-1.4
			c0.6-0.3,1.2-0.4,1.9-0.4c1.7,0,2.6,0.7,2.6,2.2c0,0.5-0.1,1.1-0.3,1.8l-2.6,7.7c-0.1,0.3-0.1,0.5-0.1,0.6c0,0.3,0.1,0.5,0.4,0.5
			c0.5,0,1-0.5,1.4-1.6l0.5-1.5H538.9z"/>
		<path fill="#FFFFFF" d="M544.1,332.8c0-0.3-0.1-0.4-0.4-0.4c-0.3,0-0.5,0.1-0.7,0.4s-0.5,0.7-0.7,1.3l-0.6,1.6h-0.5l0.7-2
			c0.7-1.8,1.9-2.7,3.9-2.7c0.9,0,1.6,0.2,2,0.7c0.4,0.4,0.7,1,0.7,1.7c0,0.4-0.1,0.8-0.2,1.2l-2.7,8c-0.1,0.3-0.1,0.5-0.1,0.6
			c0,0.3,0.1,0.5,0.4,0.5c0.5,0,1-0.5,1.4-1.6l0.5-1.5h0.5l-0.6,1.9c-0.6,1.8-1.8,2.7-3.7,2.7c-0.9,0-1.6-0.2-2-0.6s-0.7-1-0.7-1.8
			c0-0.6,0.1-1.2,0.4-2l2.4-7.2C544,333.2,544.1,333,544.1,332.8z M545.9,325.1c0.6-0.5,1.3-0.7,2.3-0.7c0.8,0,1.3,0.2,1.7,0.5
			c0.4,0.3,0.6,0.7,0.6,1.3c0,0.5-0.1,1-0.4,1.4c-0.3,0.4-0.7,0.7-1.1,1c-0.5,0.2-1,0.3-1.6,0.3c-0.7,0-1.3-0.1-1.7-0.4
			c-0.4-0.3-0.6-0.7-0.6-1.3C545,326.2,545.3,325.5,545.9,325.1z"/>
		<path fill="#FFFFFF" d="M555,343c0,0.4,0.2,0.6,0.5,0.6c0.3,0,0.7-0.2,1-0.6c0.4-0.4,0.6-0.8,0.8-1.4l0.4-1.1h0.5l-0.5,1.4
			c-0.3,1-0.9,1.8-1.6,2.3s-1.6,0.8-2.6,0.8c-1,0-1.7-0.3-2.2-0.8c-0.5-0.5-0.7-1.2-0.7-2.1c0-0.5,0.1-1.1,0.3-1.7l2.5-8.7h-2.4
			l0.1-0.5h2.4l1.1-3.9c1.8,0,3.4-0.1,4.7-0.4l-1.3,4.3h2.6l-0.1,0.5h-2.7l-3.1,10.6C555,342.7,555,342.8,555,343z"/>
		<path fill="#FFFFFF" d="M568.5,344.1c-1.1,0.7-2.4,1-3.9,1c-0.8,0-1.6-0.1-2.3-0.4c-0.7-0.3-1.2-0.7-1.6-1.3
			c-0.4-0.5-0.6-1.2-0.6-2c0-1.7,0.4-3.4,1.3-5c0.9-1.6,2.1-3,3.6-4c1.5-1,3.2-1.6,5-1.6c1,0,1.8,0.2,2.3,0.6c0.6,0.4,0.9,1,0.9,1.7
			c0,1-0.4,1.9-1.2,2.7s-1.8,1.5-3,2.1s-2.6,1-4,1.4c-0.1,0.5-0.1,0.9-0.1,1.3c0,0.9,0.2,1.6,0.5,2s0.9,0.5,1.6,0.5
			c0.4,0,1-0.1,1.7-0.4c0.7-0.3,1.3-0.8,2-1.4l0.4,0.2C570.5,342.6,569.6,343.4,568.5,344.1z M567.8,332.5c-0.6,0.7-1.2,1.7-1.7,2.9
			c-0.5,1.2-0.9,2.4-1.1,3.5c0.9-0.5,1.7-1.1,2.4-1.8c1.6-1.6,2.4-3.3,2.4-5.1c0-0.4-0.1-0.7-0.4-0.7
			C569,331.3,568.4,331.7,567.8,332.5z"/>
		<path fill="#FFFFFF" d="M595.9,343.8c0.2,0.3,0.5,0.4,0.8,0.4l-0.1,0.5c-1-0.1-2.5-0.1-4.4-0.1c-2,0-3.5,0-4.4,0.1l0.1-0.5
			c0.6,0,1-0.1,1.3-0.2c0.3-0.1,0.5-0.3,0.7-0.5c0.2-0.3,0.2-0.6,0.2-1.1c0-0.1,0-0.3,0-0.3l-0.2-4.3h-5.1l-2.5,3.6
			c-0.4,0.6-0.6,1.1-0.6,1.5c0,0.8,0.8,1.3,2.4,1.4l-0.1,0.5c-1.8-0.1-3-0.1-3.7-0.1c-0.6,0-1.2,0-1.7,0.1l0.1-0.5
			c0.3-0.1,0.7-0.2,0.9-0.5c0.3-0.2,0.6-0.5,0.9-0.9c0.3-0.4,0.8-1,1.3-1.7l10.6-14.9c0.3,0,0.6,0.1,1,0.1s0.7,0,1-0.1l1,16.4
			C595.5,343.1,595.6,343.5,595.9,343.8z M589.6,331l-4.4,6.2h4.7L589.6,331z"/>
		<path fill="#FFFFFF" d="M621.1,340.5l-0.7,1.9c-0.6,1.8-1.8,2.7-3.7,2.7c-1.2,0-2-0.4-2.4-1.1c-0.2-0.4-0.3-0.8-0.3-1.4
			c0-0.6,0.1-1.3,0.4-2l2.2-6.7c0.1-0.4,0.2-0.7,0.2-0.8c0-0.2-0.1-0.3-0.2-0.3c-0.3,0-0.7,0.3-1.2,0.8c-0.5,0.5-1,1.4-1.6,2.6
			c-0.6,1.2-1.2,2.9-1.8,4.9l-1.1,3.7h-4.6l3.1-10.8c0.1-0.5,0.2-0.8,0.2-0.9c0-0.2-0.1-0.3-0.3-0.3c-0.6,0-1.3,0.7-2.1,2.1
			c-0.8,1.4-1.6,3.4-2.4,5.9l-1,4h-4.6l3.2-11.3c0.1-0.3,0.1-0.5,0.1-0.6c0-0.3-0.1-0.4-0.4-0.4c-0.5,0-1,0.5-1.4,1.6l-0.6,1.6h-0.5
			l0.7-2c0.3-0.9,0.8-1.6,1.5-2c0.7-0.4,1.4-0.6,2.3-0.6c0.9,0,1.5,0.2,1.9,0.7c0.4,0.4,0.6,1,0.6,1.7c0,0.4-0.1,0.8-0.2,1.3
			l-0.3,1.1c0.5-1.1,1-2.1,1.6-2.8c0.5-0.7,1.1-1.2,1.8-1.5c0.7-0.3,1.4-0.5,2.2-0.5c1.5,0,2.3,0.7,2.3,2.1c0,0.5-0.1,1.2-0.3,1.9
			l-0.1,0.5c0.5-1.1,1.1-2,1.6-2.7c0.6-0.6,1.2-1.1,1.8-1.4c0.6-0.3,1.3-0.4,2-0.4c1.6,0,2.3,0.7,2.3,2c0,0.5-0.1,1.2-0.4,1.9
			l-2.6,7.7c-0.1,0.3-0.1,0.5-0.1,0.6c0,0.3,0.1,0.5,0.4,0.5c0.5,0,1-0.5,1.4-1.6l0.5-1.5H621.1z"/>
		<path fill="#FFFFFF" d="M631.1,344.1c-1.1,0.7-2.4,1-3.9,1c-0.8,0-1.6-0.1-2.3-0.4c-0.7-0.3-1.2-0.7-1.6-1.3
			c-0.4-0.5-0.6-1.2-0.6-2c0-1.7,0.4-3.4,1.3-5c0.9-1.6,2.1-3,3.6-4c1.5-1,3.2-1.6,5-1.6c1,0,1.8,0.2,2.3,0.6c0.6,0.4,0.9,1,0.9,1.7
			c0,1-0.4,1.9-1.2,2.7s-1.8,1.5-3,2.1s-2.6,1-4,1.4c-0.1,0.5-0.1,0.9-0.1,1.3c0,0.9,0.2,1.6,0.5,2s0.9,0.5,1.6,0.5
			c0.4,0,1-0.1,1.7-0.4c0.7-0.3,1.3-0.8,2-1.4l0.4,0.2C633.1,342.6,632.3,343.4,631.1,344.1z M630.5,332.5c-0.6,0.7-1.2,1.7-1.7,2.9
			c-0.5,1.2-0.9,2.4-1.1,3.5c0.9-0.5,1.7-1.1,2.4-1.8c1.6-1.6,2.4-3.3,2.4-5.1c0-0.4-0.1-0.7-0.4-0.7
			C631.6,331.3,631.1,331.7,630.5,332.5z"/>
		<path fill="#FFFFFF" d="M641.5,330.8c0.9,0,1.5,0.2,1.8,0.7c0.4,0.5,0.6,1.1,0.6,1.8c0,0.1,0,0.3,0,0.5c0.3-0.7,0.7-1.3,1.1-1.8
			c0.4-0.4,0.8-0.7,1.2-0.9c0.4-0.2,0.9-0.3,1.5-0.3c0.5,0,1,0.1,1.4,0.3c0.4,0.2,0.7,0.5,0.9,0.9c0.2,0.4,0.3,0.8,0.3,1.3
			c0,0.6-0.1,1.1-0.4,1.6s-0.6,0.9-1,1.2c-0.4,0.3-0.9,0.4-1.5,0.4c-0.6,0-1.1-0.2-1.5-0.5c-0.3-0.3-0.5-0.8-0.5-1.5
			c0-0.5,0.1-1,0.4-1.4c0.3-0.5,0.6-0.8,1-1.2c0.4-0.3,0.9-0.5,1.4-0.6c-0.2-0.1-0.3-0.1-0.4-0.1c-0.6,0-1.1,0.1-1.5,0.3
			c-0.4,0.2-0.9,0.8-1.5,1.7s-1.1,2.2-1.7,4l-1.9,7.3h-4.6l3.2-11.3c0.1-0.3,0.1-0.5,0.1-0.7c0-0.3-0.1-0.4-0.3-0.4
			c-0.3,0-0.5,0.1-0.7,0.4s-0.5,0.7-0.7,1.3l-0.6,1.6h-0.5l0.7-2C638.2,331.7,639.5,330.8,641.5,330.8z"/>
		<path fill="#FFFFFF" d="M653.4,332.8c0-0.3-0.1-0.4-0.4-0.4c-0.3,0-0.5,0.1-0.7,0.4s-0.5,0.7-0.7,1.3l-0.6,1.6h-0.5l0.7-2
			c0.7-1.8,1.9-2.7,3.9-2.7c0.9,0,1.6,0.2,2,0.7c0.4,0.4,0.7,1,0.7,1.7c0,0.4-0.1,0.8-0.2,1.2l-2.7,8c-0.1,0.3-0.1,0.5-0.1,0.6
			c0,0.3,0.1,0.5,0.4,0.5c0.5,0,1-0.5,1.4-1.6l0.5-1.5h0.5l-0.6,1.9c-0.6,1.8-1.8,2.7-3.7,2.7c-0.9,0-1.6-0.2-2-0.6s-0.7-1-0.7-1.8
			c0-0.6,0.1-1.2,0.4-2l2.4-7.2C653.4,333.2,653.4,333,653.4,332.8z M655.2,325.1c0.6-0.5,1.3-0.7,2.3-0.7c0.8,0,1.3,0.2,1.7,0.5
			c0.4,0.3,0.6,0.7,0.6,1.3c0,0.5-0.1,1-0.4,1.4c-0.3,0.4-0.7,0.7-1.1,1c-0.5,0.2-1,0.3-1.6,0.3c-0.7,0-1.3-0.1-1.7-0.4
			c-0.4-0.3-0.6-0.7-0.6-1.3C654.4,326.2,654.7,325.5,655.2,325.1z"/>
		<path fill="#FFFFFF" d="M664.1,345.1c-0.9,0-1.7-0.2-2.4-0.5c-0.7-0.3-1.2-0.8-1.6-1.4c-0.4-0.6-0.6-1.4-0.6-2.3
			c0-1.5,0.4-3.1,1.2-4.7c0.8-1.6,1.9-2.9,3.4-3.9c1.5-1,3.1-1.5,5-1.5c0.7,0,1.3,0.1,1.8,0.4c0.5,0.2,0.9,0.6,1.2,1
			c0.3,0.4,0.4,0.9,0.4,1.4c0,0.5-0.1,1.1-0.4,1.6c-0.3,0.5-0.7,1-1.1,1.3c-0.5,0.3-1,0.5-1.5,0.5c-0.3,0-0.6-0.1-0.9-0.2
			c-0.3-0.1-0.5-0.3-0.6-0.6c-0.2-0.3-0.2-0.6-0.2-1c0-0.5,0.1-1,0.4-1.5s0.6-0.9,1-1.2c0.4-0.3,0.8-0.6,1.3-0.7
			c-0.2-0.2-0.5-0.3-0.9-0.3c-0.8,0-1.6,0.5-2.4,1.4c-0.8,0.9-1.4,2.1-1.9,3.6c-0.5,1.5-0.7,3-0.7,4.5c0,0.9,0.2,1.6,0.6,2
			c0.4,0.4,0.9,0.7,1.5,0.7c0.5,0,1.1-0.2,1.6-0.5s1-0.9,1.5-1.6l0.5,0.2C668.5,343.9,666.5,345.1,664.1,345.1z"/>
		<path fill="#FFFFFF" d="M686.6,340.5l-0.6,1.9c-0.6,1.8-1.9,2.7-3.7,2.7c-1.1,0-1.8-0.3-2.3-0.9c-0.3-0.4-0.4-0.9-0.4-1.6
			c0-0.2,0-0.3,0-0.5c-0.4,1.1-1,1.8-1.6,2.3c-0.7,0.5-1.4,0.7-2.3,0.7c-1.1,0-1.9-0.3-2.4-0.8c-0.5-0.6-0.8-1.4-0.8-2.4
			c0-1.6,0.4-3.3,1.3-5c0.9-1.7,2-3.1,3.3-4.3c1.3-1.1,2.6-1.7,3.8-1.7c1,0,1.5,0.5,1.6,1.5l0.3-1.1c1.7,0,3.3-0.2,4.7-0.4
			l-3.5,11.7c-0.1,0.2-0.1,0.4-0.1,0.6c0,0.3,0.1,0.5,0.4,0.5c0.5,0,1-0.5,1.4-1.6l0.5-1.5H686.6z M682.1,332.8
			c0-0.5-0.2-0.7-0.5-0.7c-0.5,0-1.1,0.5-1.8,1.5c-0.7,1-1.3,2.3-1.8,3.8c-0.5,1.5-0.8,3-0.8,4.5c0,0.5,0,0.9,0.1,1.1
			s0.2,0.3,0.5,0.3c0.3,0,0.7-0.2,1-0.7c0.3-0.5,0.7-1.4,1.2-2.6l2-6.7C682.1,333.1,682.1,332.9,682.1,332.8z"/>
		<path fill="#FFFFFF" d="M703.4,340.5l-0.6,1.9c-0.6,1.8-1.9,2.7-3.7,2.7c-1.1,0-1.9-0.3-2.3-0.9c-0.3-0.4-0.4-0.9-0.4-1.5
			c0-0.5,0.1-1.2,0.4-2.1l2.2-6.7c0.2-0.4,0.2-0.8,0.2-1c0-0.3-0.1-0.4-0.3-0.4c-0.4,0-1,0.6-1.7,1.8c-0.7,1.2-1.4,2.8-2.2,4.7
			c-0.7,1.9-1.3,3.8-1.8,5.7l0-0.1l0,0.1h-4.6l3.2-11.3c0.1-0.4,0.2-0.6,0.2-0.7c0-0.2-0.1-0.3-0.4-0.3c-0.3,0-0.5,0.1-0.7,0.4
			s-0.5,0.7-0.7,1.3l-0.6,1.6h-0.5l0.7-2c0.3-0.9,0.8-1.6,1.4-2c0.6-0.4,1.3-0.7,2.2-0.7c1,0,1.7,0.2,2.1,0.7c0.4,0.5,0.6,1,0.6,1.8
			c0,0.4-0.1,0.8-0.2,1.2l-0.7,2.7c0.7-1.7,1.3-3,1.9-3.9c0.6-0.9,1.2-1.6,1.9-1.9c0.6-0.4,1.4-0.5,2.2-0.5c1.7,0,2.6,0.7,2.6,2.2
			c0,0.5-0.1,1.1-0.3,1.8l-2.6,7.7c-0.1,0.3-0.1,0.5-0.1,0.6c0,0.3,0.1,0.5,0.4,0.5c0.5,0,1-0.5,1.4-1.6l0.5-1.5H703.4z"/>
		<path fill="#FFFFFF" d="M708.2,344.5c0.5,0,1-0.2,1.3-0.5c0.4-0.4,0.5-0.8,0.5-1.4c0-0.5-0.1-1.1-0.4-1.7
			c-0.3-0.6-0.6-1.3-1.1-2.1c-0.4-0.7-0.7-1.2-0.9-1.5c-0.2-0.3-0.3-0.7-0.5-1.1c-0.1-0.4-0.2-0.8-0.2-1.3c0-0.8,0.2-1.4,0.6-2
			c0.4-0.6,1-1.1,1.7-1.4c0.8-0.3,1.7-0.5,2.9-0.5c1.3,0,2.3,0.2,3.2,0.7c0.9,0.5,1.3,1.2,1.3,2.3c0,0.4-0.1,0.7-0.2,1.1
			s-0.4,0.6-0.6,0.9c-0.3,0.2-0.6,0.3-1,0.3c-0.5,0-0.9-0.2-1.2-0.6c-0.3-0.4-0.4-0.9-0.4-1.6c0-0.5,0.1-1,0.3-1.4
			c0.2-0.4,0.4-0.8,0.6-1c-0.2-0.1-0.4-0.1-0.6-0.1c-0.6,0-1.1,0.2-1.4,0.5c-0.3,0.4-0.5,0.9-0.5,1.5c0,0.4,0.1,0.8,0.3,1.3
			s0.4,0.8,0.7,1.3c0.3,0.4,0.5,0.8,0.6,1c0.6,1,1,1.8,1.2,2.4s0.3,1.2,0.3,1.8c0,0.7-0.2,1.4-0.6,2s-1,1.1-1.8,1.4
			c-0.8,0.3-1.7,0.5-2.8,0.5c-1.4,0-2.5-0.3-3.5-0.8s-1.4-1.4-1.4-2.6c0-0.7,0.2-1.2,0.5-1.7c0.3-0.4,0.7-0.7,1.3-0.7
			c0.5,0,0.9,0.2,1.2,0.6c0.3,0.4,0.5,1,0.5,1.7c0,0.3,0,0.7-0.1,1c-0.1,0.3-0.2,0.6-0.3,0.9c-0.1,0.3-0.2,0.5-0.3,0.7
			C707.6,344.5,707.9,344.5,708.2,344.5z"/>
	</g>
</g>
</svg>
