<?xml version="1.0" encoding="utf-8"?>
<!-- Generator: Adobe Illustrator 18.1.1, SVG Export Plug-In . SVG Version: 6.00 Build 0)  -->
<svg version="1.1" xmlns="http://www.w3.org/2000/svg" xmlns:xlink="http://www.w3.org/1999/xlink" x="0px" y="0px"
	 viewBox="0 0 594.1 348" enable-background="new 0 0 594.1 348" xml:space="preserve">
<g id="Strip">
	<rect x="326" y="144.3" fill="#BE3E26" width="268.1" height="65.3"/>
</g>
<g id="ring">
	<g id="Layer_6">
	</g>
	<circle fill="#084F6F" cx="171" cy="175" r="155"/>
	<circle fill="none" stroke="#296B83" stroke-width="15" stroke-miterlimit="10" cx="171" cy="175" r="158"/>
</g>
<g id="type">
	<g>
		<path fill="#FFFFFF" d="M220.6,100.2c0,2.6-0.4,4.9-1.2,7c-0.8,2.1-2.1,3.9-3.8,5.5c-1.7,1.6-4,2.8-6.8,3.6
			c-2.8,0.8-6.2,1.3-10.1,1.3H157l-4.9,28.9c3.3-0.6,6.4-1,9.5-1.3c3-0.3,6-0.4,8.9-0.4c9.2,0,17.3,1.4,24.4,4.2
			c7,2.8,13,6.6,17.8,11.5c4.8,4.8,8.4,10.5,10.9,17c2.4,6.5,3.7,13.5,3.7,20.9c0,9.4-1.7,17.9-5,25.6c-3.3,7.7-7.9,14.4-13.9,20
			c-5.9,5.6-13,9.9-21.2,13c-8.2,3.1-17.2,4.6-26.9,4.6c-5.7,0-11.1-0.6-16.3-1.8s-10-2.8-14.5-4.9c-4.5-2-8.7-4.4-12.5-7.1
			c-3.8-2.7-7.3-5.5-10.4-8.6l11.5-15.4c1.2-1.6,2.6-2.8,4.2-3.7c1.6-0.8,3.3-1.3,5.2-1.3c2.4,0,4.7,0.7,6.8,2
			c2.1,1.3,4.4,2.8,7,4.3c2.5,1.6,5.5,3,8.8,4.3c3.4,1.3,7.5,1.9,12.5,1.9c5,0,9.2-0.8,12.7-2.5c3.5-1.6,6.4-3.9,8.6-6.7
			c2.2-2.8,3.8-6.2,4.8-10c1-3.8,1.5-7.9,1.5-12.2c0-8.5-2.4-14.9-7.2-19.4c-4.8-4.4-11.6-6.7-20.4-6.7c-7.8,0-15.5,1.5-23,4.4
			l-23-6.2L131,84.8h89.5V100.2z"/>
	</g>
	<g>
		<path fill="#FFFFFF" d="M368.9,176.2h0.2l7.1-18.3h9.1L373,185.4v15.2h-8.3v-15.7l-12-27h9.1L368.9,176.2z"/>
		<path fill="#FFFFFF" d="M412,181.9h-14.3v12.1h16.8v6.7h-25.2v-42.7h25.1v6.7h-16.8v10.6H412V181.9z"/>
		<path fill="#FFFFFF" d="M438.6,191.5h-11.2l-2.3,9.1h-8.4l12-42.7h8.7l12,42.7h-8.4L438.6,191.5z M429.1,184.8h7.9l-3.8-15.1h-0.2
			L429.1,184.8z"/>
		<path fill="#FFFFFF" d="M461.6,183.6v17h-8.3V158h13.9c4.2,0,7.5,1.1,9.9,3.3s3.6,5.3,3.6,9.2c0,2.2-0.5,4.1-1.5,5.8
			c-1,1.6-2.5,2.9-4.4,3.9c2.2,0.7,3.8,2,4.7,3.7s1.5,3.9,1.5,6.4v3c0,1.2,0.1,2.4,0.4,3.8s0.8,2.3,1.4,2.9v0.6h-8.6
			c-0.7-0.6-1.1-1.6-1.3-3s-0.3-2.8-0.3-4.3v-2.9c0-2.1-0.4-3.8-1.3-5s-2.1-1.8-3.7-1.8H461.6z M461.6,177h5.6c1.7,0,3-0.5,3.9-1.6
			c0.9-1,1.3-2.5,1.3-4.4c0-2-0.4-3.5-1.3-4.7s-2.2-1.7-3.8-1.7h-5.6V177z"/>
	</g>
	<g>
		<path fill="#FFFFFF" d="M376.6,239.6L376.6,239.6l2.3-13.2h3.9l-4,20.6H375l-2.9-12.6h-0.1l-2.9,12.6h-3.7l-4-20.6h3.9l2.2,13.2
			h0.1l3-13.2h2.9L376.6,239.6z"/>
		<path fill="#FFFFFF" d="M394,242.7h-5.4l-1.1,4.4h-4.1l5.8-20.6h4.2l5.8,20.6h-4.1L394,242.7z M389.4,239.5h3.8l-1.9-7.3h-0.1
			L389.4,239.5z"/>
		<path fill="#FFFFFF" d="M405.8,247.1h-4v-20.6h4V247.1z"/>
		<path fill="#FFFFFF" d="M421.6,229.7h-4.6v17.4h-4v-17.4h-4.6v-3.2h13.3V229.7z"/>
		<path fill="#FFFFFF" d="M442.3,238.5h-7v8.6h-4v-20.6h12.3v3.2h-8.2v5.6h7V238.5z"/>
		<path fill="#FFFFFF" d="M460.3,239.7c0,2.4-0.7,4.3-2,5.7s-3.1,2-5.2,2s-3.9-0.7-5.2-2s-2-3.2-2-5.7v-5.8c0-2.4,0.7-4.3,2-5.7
			c1.3-1.4,3-2.1,5.2-2.1c2.2,0,3.9,0.7,5.2,2.1c1.3,1.4,2,3.3,2,5.7V239.7z M456.3,233.9c0-1.5-0.3-2.6-0.8-3.3s-1.3-1.1-2.4-1.1
			c-1.1,0-1.8,0.4-2.4,1.1c-0.5,0.7-0.8,1.9-0.8,3.4v5.8c0,1.5,0.3,2.6,0.8,3.4c0.5,0.7,1.3,1.1,2.4,1.1c1,0,1.8-0.4,2.4-1.1
			c0.5-0.7,0.8-1.9,0.8-3.4V233.9z"/>
		<path fill="#FFFFFF" d="M467.7,238.9v8.2h-4v-20.6h6.7c2,0,3.6,0.5,4.8,1.6s1.7,2.6,1.7,4.5c0,1.1-0.2,2-0.7,2.8
			c-0.5,0.8-1.2,1.4-2.1,1.9c1.1,0.4,1.8,1,2.3,1.8c0.5,0.8,0.7,1.9,0.7,3.1v1.5c0,0.6,0.1,1.2,0.2,1.8c0.1,0.6,0.4,1.1,0.7,1.4v0.3
			h-4.2c-0.3-0.3-0.5-0.8-0.6-1.5s-0.1-1.4-0.1-2.1v-1.4c0-1-0.2-1.8-0.6-2.4s-1-0.8-1.8-0.8H467.7z M467.7,235.7h2.7
			c0.8,0,1.4-0.2,1.9-0.8c0.4-0.5,0.6-1.2,0.6-2.1c0-0.9-0.2-1.7-0.6-2.3c-0.4-0.6-1-0.8-1.9-0.8h-2.7V235.7z"/>
		<path fill="#FFFFFF" d="M493.7,238.5h-1.8v8.6h-4v-20.6h4v8.4h1.3l4-8.4h4.9l-5.6,9.4l6.1,11.2h-4.9L493.7,238.5z"/>
		<path fill="#FFFFFF" d="M509,247.1h-4v-20.6h4V247.1z"/>
		<path fill="#FFFFFF" d="M513,247.1v-20.6h6.2c2.1,0,3.9,0.8,5.2,2.4c1.4,1.6,2.1,3.7,2.1,6.2v3.5c0,2.5-0.7,4.6-2.1,6.2
			c-1.4,1.6-3.1,2.4-5.2,2.4H513z M517.1,229.7v14.2h2c1.1,0,2-0.5,2.6-1.5c0.6-1,0.9-2.3,0.9-3.9V235c0-1.6-0.3-2.9-0.9-3.9
			c-0.6-1-1.5-1.5-2.6-1.5H517.1z"/>
		<path fill="#FFFFFF" d="M544.5,247.1h-4l-6.3-13.2l-0.1,0v13.2h-4v-20.6h4l6.3,13.2l0.1,0v-13.1h4V247.1z"/>
		<path fill="#FFFFFF" d="M559.3,238h-6.9v5.8h8.1v3.2h-12.2v-20.6h12.1v3.2h-8.1v5.1h6.9V238z"/>
		<path fill="#FFFFFF" d="M569.7,235.3L569.7,235.3l3.5-8.8h4.4l-5.9,13.3v7.3h-4v-7.6l-5.8-13h4.4L569.7,235.3z"/>
		<path fill="#FFFFFF" d="M588.9,241.7c0-0.8-0.2-1.4-0.6-1.9c-0.4-0.5-1.1-0.9-2.2-1.4c-2.1-0.7-3.8-1.6-4.8-2.5
			c-1.1-0.9-1.6-2.3-1.6-4c0-1.7,0.6-3.1,1.9-4.1c1.2-1.1,2.8-1.6,4.8-1.6c2,0,3.6,0.6,4.8,1.8c1.2,1.2,1.8,2.7,1.8,4.5l0,0.1h-3.9
			c0-0.9-0.2-1.7-0.7-2.3c-0.5-0.6-1.1-0.9-2-0.9c-0.8,0-1.4,0.2-1.9,0.7s-0.7,1.1-0.7,1.8c0,0.7,0.2,1.2,0.8,1.7
			c0.5,0.4,1.4,0.9,2.6,1.5c2,0.7,3.4,1.5,4.4,2.5s1.5,2.4,1.5,4.1c0,1.8-0.6,3.2-1.8,4.2s-2.8,1.5-4.7,1.5c-2,0-3.7-0.6-5.1-1.7
			c-1.4-1.1-2.1-2.8-2.1-4.9l0-0.1h3.9c0,1.3,0.3,2.2,0.8,2.7c0.5,0.6,1.3,0.8,2.4,0.8c0.8,0,1.5-0.2,1.9-0.7
			C588.7,243.1,588.9,242.5,588.9,241.7z"/>
	</g>
	<g>
		<path fill="#FFFFFF" d="M368.8,263.1c0.8-0.6,1.9-0.9,3.2-0.9c0.7,0,1.3,0.1,1.8,0.3c0.5,0.2,0.9,0.5,1.1,0.8
			c0.3,0.4,0.4,0.8,0.4,1.3c0,0.3-0.1,0.7-0.3,1c-0.2,0.3-0.5,0.6-0.8,0.8c-0.3,0.2-0.7,0.3-1.2,0.3c-0.5,0-0.9-0.1-1.2-0.4
			c-0.3-0.2-0.5-0.6-0.5-1.1c0-0.5,0.2-1,0.5-1.5c0.3-0.4,0.8-0.8,1.4-1c-0.2-0.1-0.4-0.1-0.5-0.1c-0.4,0-0.8,0.1-1,0.3
			c-0.4,0.3-0.7,1-1,2.1l-0.7,2.8h2.1l-0.1,0.4h-2.1l-3.8,14c-1.4,0-2.7,0.1-3.8,0.3l3.9-14.3h-1.7l0.1-0.4h1.6
			C366.7,265.5,367.6,263.9,368.8,263.1z"/>
		<path fill="#FFFFFF" d="M372.3,271.7c0.5-1.2,1.4-2.2,2.5-3.1c1.1-0.8,2.4-1.2,4-1.2c1.2,0,2.1,0.3,2.8,0.9c0.6,0.6,1,1.5,1,2.7
			c0,1.2-0.3,2.4-0.8,3.6c-0.5,1.2-1.4,2.2-2.5,3.1c-1.1,0.8-2.4,1.2-4,1.2c-1.2,0-2.1-0.3-2.8-0.9c-0.6-0.6-1-1.5-1-2.6
			C371.5,274.1,371.8,272.9,372.3,271.7z M377.2,269.4c-0.6,1.1-1.1,2.3-1.6,3.8s-0.7,2.8-0.7,4.1c0,0.4,0,0.7,0.1,0.9
			c0.1,0.2,0.2,0.3,0.3,0.3c0.4,0,0.9-0.5,1.5-1.5c0.6-1,1.1-2.3,1.6-3.7c0.4-1.5,0.7-2.9,0.7-4.2c0-0.5,0-0.8-0.1-1
			c-0.1-0.2-0.2-0.2-0.3-0.2C378.3,267.8,377.8,268.3,377.2,269.4z"/>
		<path fill="#FFFFFF" d="M387.7,267.4c0.7,0,1.2,0.2,1.5,0.6c0.3,0.4,0.5,0.9,0.5,1.4c0,0.1,0,0.2,0,0.4c0.3-0.6,0.6-1.1,0.9-1.4
			c0.3-0.3,0.6-0.6,1-0.7c0.3-0.2,0.7-0.2,1.2-0.2c0.4,0,0.8,0.1,1.1,0.3c0.3,0.2,0.5,0.4,0.7,0.7c0.2,0.3,0.2,0.7,0.2,1
			c0,0.5-0.1,0.9-0.3,1.3s-0.5,0.7-0.8,1c-0.4,0.2-0.8,0.4-1.2,0.4c-0.5,0-0.9-0.1-1.2-0.4c-0.3-0.3-0.4-0.7-0.4-1.2
			c0-0.4,0.1-0.8,0.3-1.2c0.2-0.4,0.5-0.7,0.8-0.9c0.4-0.3,0.7-0.4,1.1-0.5c-0.1,0-0.2-0.1-0.3-0.1c-0.5,0-0.9,0.1-1.2,0.3
			c-0.4,0.2-0.8,0.6-1.2,1.3c-0.4,0.7-0.9,1.8-1.4,3.3l-1.5,5.9h-3.7l2.6-9.1c0.1-0.2,0.1-0.4,0.1-0.5c0-0.2-0.1-0.3-0.3-0.3
			c-0.2,0-0.4,0.1-0.6,0.3c-0.2,0.2-0.4,0.5-0.6,1l-0.5,1.3H384l0.6-1.6C385.1,268.1,386.1,267.4,387.7,267.4z"/>
		<path fill="#FFFFFF" d="M412.5,277.8c0.2,0.2,0.4,0.3,0.7,0.3l-0.1,0.4c-0.8,0-2-0.1-3.5-0.1c-1.6,0-2.8,0-3.6,0.1l0.1-0.4
			c0.5,0,0.8-0.1,1.1-0.2c0.3-0.1,0.4-0.2,0.6-0.4c0.1-0.2,0.2-0.5,0.2-0.9c0-0.1,0-0.2,0-0.3l-0.2-3.4h-4.1l-2,2.9
			c-0.3,0.5-0.5,0.9-0.5,1.2c0,0.7,0.6,1,1.9,1.1l-0.1,0.4c-1.4,0-2.4-0.1-3-0.1c-0.5,0-0.9,0-1.4,0.1l0.1-0.4
			c0.3-0.1,0.5-0.2,0.8-0.4c0.2-0.2,0.5-0.4,0.8-0.7c0.3-0.3,0.6-0.8,1-1.4l8.6-12c0.2,0,0.5,0,0.8,0s0.6,0,0.8,0l0.8,13.2
			C412.2,277.3,412.3,277.6,412.5,277.8z M407.4,267.5l-3.5,5h3.8L407.4,267.5z"/>
		<path fill="#FFFFFF" d="M420.5,263.1c0.8-0.6,1.9-0.9,3.2-0.9c0.7,0,1.3,0.1,1.8,0.3c0.5,0.2,0.9,0.5,1.1,0.8
			c0.3,0.4,0.4,0.8,0.4,1.3c0,0.3-0.1,0.7-0.3,1c-0.2,0.3-0.5,0.6-0.8,0.8c-0.3,0.2-0.7,0.3-1.2,0.3c-0.5,0-0.9-0.1-1.2-0.4
			c-0.3-0.2-0.5-0.6-0.5-1.1c0-0.5,0.2-1,0.5-1.5c0.3-0.4,0.8-0.8,1.4-1c-0.2-0.1-0.4-0.1-0.5-0.1c-0.4,0-0.8,0.1-1,0.3
			c-0.4,0.3-0.7,1-1,2.1l-0.7,2.8h2.1l-0.1,0.4h-2.1l-3.8,14c-1.4,0-2.7,0.1-3.8,0.3l3.9-14.3h-1.7l0.1-0.4h1.6
			C418.4,265.5,419.3,263.9,420.5,263.1z"/>
		<path fill="#FFFFFF" d="M427.2,267.4c0.7,0,1.2,0.2,1.5,0.6c0.3,0.4,0.5,0.9,0.5,1.4c0,0.1,0,0.2,0,0.4c0.3-0.6,0.6-1.1,0.9-1.4
			c0.3-0.3,0.6-0.6,1-0.7c0.3-0.2,0.7-0.2,1.2-0.2c0.4,0,0.8,0.1,1.1,0.3c0.3,0.2,0.5,0.4,0.7,0.7c0.2,0.3,0.2,0.7,0.2,1
			c0,0.5-0.1,0.9-0.3,1.3s-0.5,0.7-0.8,1c-0.4,0.2-0.8,0.4-1.2,0.4c-0.5,0-0.9-0.1-1.2-0.4c-0.3-0.3-0.4-0.7-0.4-1.2
			c0-0.4,0.1-0.8,0.3-1.2c0.2-0.4,0.5-0.7,0.8-0.9c0.4-0.3,0.7-0.4,1.1-0.5c-0.1,0-0.2-0.1-0.3-0.1c-0.5,0-0.9,0.1-1.2,0.3
			c-0.4,0.2-0.8,0.6-1.2,1.3c-0.4,0.7-0.9,1.8-1.4,3.3l-1.5,5.9h-3.7l2.6-9.1c0.1-0.2,0.1-0.4,0.1-0.5c0-0.2-0.1-0.3-0.3-0.3
			c-0.2,0-0.4,0.1-0.6,0.3c-0.2,0.2-0.4,0.5-0.6,1l-0.5,1.3h-0.4l0.6-1.6C424.6,268.1,425.6,267.4,427.2,267.4z"/>
		<path fill="#FFFFFF" d="M436.8,268.9c0-0.2-0.1-0.4-0.3-0.4c-0.2,0-0.4,0.1-0.6,0.3s-0.4,0.5-0.6,1l-0.5,1.3h-0.4l0.6-1.6
			c0.5-1.4,1.6-2.2,3.1-2.2c0.8,0,1.3,0.2,1.7,0.5c0.4,0.4,0.5,0.8,0.5,1.4c0,0.3-0.1,0.7-0.2,1l-2.2,6.5c-0.1,0.2-0.1,0.4-0.1,0.5
			c0,0.2,0.1,0.4,0.4,0.4c0.4,0,0.8-0.4,1.1-1.3l0.4-1.2h0.4l-0.5,1.5c-0.5,1.4-1.5,2.2-3,2.2c-0.7,0-1.3-0.2-1.7-0.5
			s-0.6-0.8-0.6-1.5c0-0.5,0.1-1,0.3-1.6l1.9-5.8C436.8,269.3,436.8,269.1,436.8,268.9z M438.3,262.7c0.5-0.4,1.1-0.6,1.9-0.6
			c0.6,0,1.1,0.1,1.4,0.4c0.3,0.2,0.5,0.6,0.5,1.1c0,0.4-0.1,0.8-0.3,1.1c-0.2,0.3-0.5,0.6-0.9,0.8c-0.4,0.2-0.8,0.3-1.3,0.3
			c-0.6,0-1.1-0.1-1.4-0.4c-0.3-0.2-0.5-0.6-0.5-1C437.6,263.7,437.8,263.1,438.3,262.7z"/>
		<path fill="#FFFFFF" d="M445.4,278.9c-0.7,0-1.4-0.1-1.9-0.4c-0.6-0.2-1-0.6-1.3-1.1c-0.3-0.5-0.5-1.1-0.5-1.9
			c0-1.2,0.3-2.5,1-3.8c0.6-1.3,1.6-2.3,2.7-3.2c1.2-0.8,2.5-1.2,4-1.2c0.6,0,1,0.1,1.5,0.3c0.4,0.2,0.7,0.5,0.9,0.8
			c0.2,0.3,0.3,0.7,0.3,1.1c0,0.4-0.1,0.9-0.3,1.3c-0.2,0.4-0.5,0.8-0.9,1c-0.4,0.3-0.8,0.4-1.2,0.4c-0.3,0-0.5-0.1-0.7-0.2
			c-0.2-0.1-0.4-0.3-0.5-0.5c-0.1-0.2-0.2-0.5-0.2-0.8c0-0.4,0.1-0.8,0.3-1.2s0.5-0.7,0.8-1c0.3-0.3,0.7-0.5,1.1-0.6
			c-0.2-0.2-0.4-0.3-0.7-0.3c-0.7,0-1.3,0.4-2,1.1c-0.6,0.7-1.1,1.7-1.5,2.9c-0.4,1.2-0.6,2.4-0.6,3.6c0,0.7,0.1,1.3,0.4,1.6
			c0.3,0.4,0.7,0.5,1.2,0.5c0.4,0,0.9-0.1,1.3-0.4c0.4-0.3,0.8-0.7,1.2-1.3l0.4,0.2C449,277.9,447.4,278.9,445.4,278.9z"/>
		<path fill="#FFFFFF" d="M463.7,275.2l-0.5,1.5c-0.5,1.4-1.5,2.2-3,2.2c-0.9,0-1.5-0.2-1.8-0.7c-0.2-0.3-0.3-0.8-0.3-1.3
			c0-0.2,0-0.3,0-0.4c-0.3,0.9-0.8,1.5-1.3,1.9c-0.5,0.4-1.2,0.5-1.9,0.5c-0.9,0-1.5-0.2-2-0.7c-0.4-0.4-0.7-1.1-0.7-2
			c0-1.3,0.4-2.7,1.1-4.1c0.7-1.4,1.6-2.5,2.6-3.4c1.1-0.9,2.1-1.4,3-1.4c0.8,0,1.2,0.4,1.3,1.2l0.3-0.9c1.4,0,2.7-0.1,3.8-0.3
			l-2.8,9.4c-0.1,0.2-0.1,0.4-0.1,0.5c0,0.2,0.1,0.4,0.3,0.4c0.4,0,0.8-0.4,1.1-1.3l0.4-1.2H463.7z M460,269c0-0.4-0.1-0.6-0.4-0.6
			c-0.4,0-0.9,0.4-1.4,1.2c-0.6,0.8-1,1.8-1.5,3.1c-0.4,1.2-0.6,2.4-0.6,3.6c0,0.4,0,0.7,0.1,0.9s0.2,0.2,0.4,0.2
			c0.3,0,0.5-0.2,0.8-0.6c0.3-0.4,0.6-1.1,0.9-2.1l1.6-5.4C460,269.2,460,269.1,460,269z"/>
		<path fill="#FFFFFF" d="M477.2,275.2l-0.5,1.5c-0.5,1.4-1.5,2.2-3,2.2c-0.9,0-1.5-0.3-1.9-0.8c-0.2-0.3-0.3-0.7-0.3-1.2
			c0-0.4,0.1-1,0.3-1.7l1.8-5.4c0.1-0.4,0.2-0.6,0.2-0.8c0-0.2-0.1-0.3-0.2-0.3c-0.4,0-0.8,0.5-1.4,1.5c-0.6,1-1.2,2.2-1.8,3.8
			c-0.6,1.5-1.1,3.1-1.5,4.6l0,0l0,0.1h-3.7l2.6-9.1c0.1-0.3,0.1-0.5,0.1-0.6c0-0.2-0.1-0.3-0.3-0.3c-0.2,0-0.4,0.1-0.6,0.3
			c-0.2,0.2-0.4,0.5-0.6,1l-0.5,1.3h-0.4l0.6-1.6c0.3-0.7,0.6-1.3,1.1-1.6c0.5-0.4,1.1-0.5,1.8-0.5c0.8,0,1.4,0.2,1.7,0.6
			c0.3,0.4,0.5,0.8,0.5,1.4c0,0.3,0,0.6-0.1,1l-0.6,2.2c0.5-1.4,1.1-2.4,1.6-3.2c0.5-0.7,1-1.3,1.5-1.5c0.5-0.3,1.1-0.4,1.8-0.4
			c1.4,0,2.1,0.6,2.1,1.7c0,0.4-0.1,0.9-0.3,1.4l-2.1,6.2c-0.1,0.2-0.1,0.4-0.1,0.5c0,0.3,0.1,0.4,0.3,0.4c0.4,0,0.8-0.4,1.1-1.3
			l0.4-1.2H477.2z"/>
		<path fill="#FFFFFF" d="M496.5,277.8c0.2,0.2,0.4,0.3,0.7,0.3l-0.1,0.4c-0.8,0-2-0.1-3.5-0.1c-1.6,0-2.8,0-3.6,0.1l0.1-0.4
			c0.5,0,0.8-0.1,1.1-0.2c0.3-0.1,0.4-0.2,0.6-0.4c0.1-0.2,0.2-0.5,0.2-0.9c0-0.1,0-0.2,0-0.3l-0.2-3.4h-4.1l-2,2.9
			c-0.3,0.5-0.5,0.9-0.5,1.2c0,0.7,0.6,1,1.9,1.1l-0.1,0.4c-1.4,0-2.4-0.1-3-0.1c-0.5,0-0.9,0-1.4,0.1l0.1-0.4
			c0.3-0.1,0.5-0.2,0.8-0.4c0.2-0.2,0.5-0.4,0.8-0.7c0.3-0.3,0.6-0.8,1-1.4l8.6-12c0.2,0,0.5,0,0.8,0s0.6,0,0.8,0l0.8,13.2
			C496.2,277.3,496.3,277.6,496.5,277.8z M491.4,267.5l-3.5,5h3.8L491.4,267.5z"/>
		<path fill="#FFFFFF" d="M516.8,275.2l-0.5,1.5c-0.5,1.4-1.5,2.2-3,2.2c-0.9,0-1.6-0.3-1.9-0.9c-0.2-0.3-0.3-0.7-0.3-1.1
			c0-0.5,0.1-1,0.3-1.6l1.8-5.4c0.1-0.3,0.2-0.5,0.2-0.7c0-0.2-0.1-0.2-0.2-0.2c-0.3,0-0.6,0.2-1,0.6c-0.4,0.4-0.8,1.1-1.3,2.1
			c-0.5,1-1,2.3-1.5,3.9l-0.9,3h-3.7l2.5-8.8c0.1-0.4,0.2-0.6,0.2-0.7c0-0.1-0.1-0.2-0.2-0.2c-0.5,0-1.1,0.6-1.7,1.7
			c-0.6,1.1-1.3,2.7-1.9,4.7l-0.8,3.2h-3.7l2.6-9.1c0.1-0.2,0.1-0.4,0.1-0.5c0-0.2-0.1-0.4-0.3-0.4c-0.4,0-0.8,0.4-1.1,1.3l-0.5,1.3
			h-0.4l0.6-1.6c0.3-0.7,0.7-1.3,1.2-1.6c0.5-0.3,1.1-0.5,1.8-0.5c0.7,0,1.2,0.2,1.6,0.5c0.3,0.4,0.5,0.8,0.5,1.4c0,0.3,0,0.7-0.1,1
			l-0.2,0.9c0.4-0.9,0.8-1.7,1.3-2.2c0.4-0.6,0.9-1,1.5-1.2c0.5-0.3,1.1-0.4,1.8-0.4c1.2,0,1.8,0.6,1.8,1.7c0,0.4-0.1,0.9-0.2,1.5
			l-0.1,0.4c0.4-0.9,0.9-1.6,1.3-2.1c0.5-0.5,0.9-0.9,1.4-1.1c0.5-0.2,1-0.3,1.6-0.3c1.3,0,1.9,0.6,1.9,1.7c0,0.4-0.1,0.9-0.3,1.5
			l-2.1,6.2c-0.1,0.2-0.1,0.4-0.1,0.5c0,0.3,0.1,0.4,0.3,0.4c0.4,0,0.8-0.4,1.1-1.3l0.4-1.2H516.8z"/>
		<path fill="#FFFFFF" d="M525,278.1c-0.9,0.5-2,0.8-3.1,0.8c-0.7,0-1.3-0.1-1.8-0.3c-0.6-0.2-1-0.6-1.3-1c-0.3-0.4-0.5-1-0.5-1.6
			c0-1.4,0.4-2.7,1.1-4c0.7-1.3,1.7-2.4,2.9-3.2c1.2-0.8,2.6-1.3,4.1-1.3c0.8,0,1.4,0.2,1.9,0.5c0.5,0.3,0.7,0.8,0.7,1.4
			c0,0.8-0.3,1.5-1,2.2c-0.6,0.7-1.5,1.2-2.5,1.7c-1,0.5-2.1,0.8-3.2,1.1c0,0.4-0.1,0.7-0.1,1.1c0,0.8,0.1,1.3,0.4,1.6
			s0.7,0.4,1.3,0.4c0.3,0,0.8-0.1,1.3-0.4c0.6-0.2,1.1-0.6,1.6-1.1l0.3,0.2C526.6,276.9,525.9,277.5,525,278.1z M524.4,268.7
			c-0.5,0.6-0.9,1.4-1.3,2.3c-0.4,0.9-0.7,1.9-0.9,2.9c0.7-0.4,1.4-0.9,1.9-1.4c1.3-1.3,1.9-2.6,1.9-4.1c0-0.4-0.1-0.5-0.3-0.5
			C525.4,267.8,524.9,268.1,524.4,268.7z"/>
		<path fill="#FFFFFF" d="M533.3,267.4c0.7,0,1.2,0.2,1.5,0.6c0.3,0.4,0.5,0.9,0.5,1.4c0,0.1,0,0.2,0,0.4c0.3-0.6,0.6-1.1,0.9-1.4
			c0.3-0.3,0.6-0.6,1-0.7c0.3-0.2,0.7-0.2,1.2-0.2c0.4,0,0.8,0.1,1.1,0.3c0.3,0.2,0.5,0.4,0.7,0.7c0.2,0.3,0.2,0.7,0.2,1
			c0,0.5-0.1,0.9-0.3,1.3s-0.5,0.7-0.8,1c-0.4,0.2-0.8,0.4-1.2,0.4c-0.5,0-0.9-0.1-1.2-0.4c-0.3-0.3-0.4-0.7-0.4-1.2
			c0-0.4,0.1-0.8,0.3-1.2c0.2-0.4,0.5-0.7,0.8-0.9c0.4-0.3,0.7-0.4,1.1-0.5c-0.1,0-0.2-0.1-0.3-0.1c-0.5,0-0.9,0.1-1.2,0.3
			c-0.4,0.2-0.8,0.6-1.2,1.3c-0.4,0.7-0.9,1.8-1.4,3.3l-1.5,5.9h-3.7l2.6-9.1c0.1-0.2,0.1-0.4,0.1-0.5c0-0.2-0.1-0.3-0.3-0.3
			c-0.2,0-0.4,0.1-0.6,0.3c-0.2,0.2-0.4,0.5-0.6,1l-0.5,1.3h-0.4l0.6-1.6C530.7,268.1,531.7,267.4,533.3,267.4z"/>
		<path fill="#FFFFFF" d="M543,268.9c0-0.2-0.1-0.4-0.3-0.4c-0.2,0-0.4,0.1-0.6,0.3s-0.4,0.5-0.6,1l-0.5,1.3h-0.4l0.6-1.6
			c0.5-1.4,1.6-2.2,3.1-2.2c0.8,0,1.3,0.2,1.7,0.5c0.4,0.4,0.5,0.8,0.5,1.4c0,0.3-0.1,0.7-0.2,1l-2.2,6.5c-0.1,0.2-0.1,0.4-0.1,0.5
			c0,0.2,0.1,0.4,0.4,0.4c0.4,0,0.8-0.4,1.1-1.3l0.4-1.2h0.4l-0.5,1.5c-0.5,1.4-1.5,2.2-3,2.2c-0.7,0-1.3-0.2-1.7-0.5
			s-0.6-0.8-0.6-1.5c0-0.5,0.1-1,0.3-1.6l1.9-5.8C542.9,269.3,543,269.1,543,268.9z M544.4,262.7c0.5-0.4,1.1-0.6,1.9-0.6
			c0.6,0,1.1,0.1,1.4,0.4c0.3,0.2,0.5,0.6,0.5,1.1c0,0.4-0.1,0.8-0.3,1.1c-0.2,0.3-0.5,0.6-0.9,0.8c-0.4,0.2-0.8,0.3-1.3,0.3
			c-0.6,0-1.1-0.1-1.4-0.4c-0.3-0.2-0.5-0.6-0.5-1C543.7,263.7,544,263.1,544.4,262.7z"/>
		<path fill="#FFFFFF" d="M551.6,278.9c-0.7,0-1.4-0.1-1.9-0.4c-0.6-0.2-1-0.6-1.3-1.1c-0.3-0.5-0.5-1.1-0.5-1.9
			c0-1.2,0.3-2.5,1-3.8c0.6-1.3,1.6-2.3,2.7-3.2c1.2-0.8,2.5-1.2,4-1.2c0.6,0,1,0.1,1.5,0.3c0.4,0.2,0.7,0.5,0.9,0.8
			c0.2,0.3,0.3,0.7,0.3,1.1c0,0.4-0.1,0.9-0.3,1.3c-0.2,0.4-0.5,0.8-0.9,1c-0.4,0.3-0.8,0.4-1.2,0.4c-0.3,0-0.5-0.1-0.7-0.2
			c-0.2-0.1-0.4-0.3-0.5-0.5c-0.1-0.2-0.2-0.5-0.2-0.8c0-0.4,0.1-0.8,0.3-1.2s0.5-0.7,0.8-1c0.3-0.3,0.7-0.5,1.1-0.6
			c-0.2-0.2-0.4-0.3-0.7-0.3c-0.7,0-1.3,0.4-2,1.1c-0.6,0.7-1.1,1.7-1.5,2.9c-0.4,1.2-0.6,2.4-0.6,3.6c0,0.7,0.1,1.3,0.4,1.6
			c0.3,0.4,0.7,0.5,1.2,0.5c0.4,0,0.9-0.1,1.3-0.4c0.4-0.3,0.8-0.7,1.2-1.3l0.4,0.2C555.2,277.9,553.6,278.9,551.6,278.9z"/>
		<path fill="#FFFFFF" d="M569.8,275.2l-0.5,1.5c-0.5,1.4-1.5,2.2-3,2.2c-0.9,0-1.5-0.2-1.8-0.7c-0.2-0.3-0.3-0.8-0.3-1.3
			c0-0.2,0-0.3,0-0.4c-0.3,0.9-0.8,1.5-1.3,1.9c-0.5,0.4-1.2,0.5-1.9,0.5c-0.9,0-1.5-0.2-2-0.7c-0.4-0.4-0.7-1.1-0.7-2
			c0-1.3,0.4-2.7,1.1-4.1c0.7-1.4,1.6-2.5,2.6-3.4c1.1-0.9,2.1-1.4,3-1.4c0.8,0,1.2,0.4,1.3,1.2l0.3-0.9c1.4,0,2.7-0.1,3.8-0.3
			l-2.8,9.4c-0.1,0.2-0.1,0.4-0.1,0.5c0,0.2,0.1,0.4,0.3,0.4c0.4,0,0.8-0.4,1.1-1.3l0.4-1.2H569.8z M566.2,269
			c0-0.4-0.1-0.6-0.4-0.6c-0.4,0-0.9,0.4-1.4,1.2c-0.6,0.8-1,1.8-1.5,3.1c-0.4,1.2-0.6,2.4-0.6,3.6c0,0.4,0,0.7,0.1,0.9
			s0.2,0.2,0.4,0.2c0.3,0,0.5-0.2,0.8-0.6c0.3-0.4,0.6-1.1,0.9-2.1l1.6-5.4C566.2,269.2,566.2,269.1,566.2,269z"/>
		<path fill="#FFFFFF" d="M583.4,275.2l-0.5,1.5c-0.5,1.4-1.5,2.2-3,2.2c-0.9,0-1.5-0.3-1.9-0.8c-0.2-0.3-0.3-0.7-0.3-1.2
			c0-0.4,0.1-1,0.3-1.7l1.8-5.4c0.1-0.4,0.2-0.6,0.2-0.8c0-0.2-0.1-0.3-0.2-0.3c-0.4,0-0.8,0.5-1.4,1.5c-0.6,1-1.2,2.2-1.8,3.8
			c-0.6,1.5-1.1,3.1-1.5,4.6l0,0l0,0.1h-3.7l2.6-9.1c0.1-0.3,0.1-0.5,0.1-0.6c0-0.2-0.1-0.3-0.3-0.3c-0.2,0-0.4,0.1-0.6,0.3
			c-0.2,0.2-0.4,0.5-0.6,1l-0.5,1.3h-0.4l0.6-1.6c0.3-0.7,0.6-1.3,1.1-1.6c0.5-0.4,1.1-0.5,1.8-0.5c0.8,0,1.4,0.2,1.7,0.6
			c0.3,0.4,0.5,0.8,0.5,1.4c0,0.3,0,0.6-0.1,1l-0.6,2.2c0.5-1.4,1.1-2.4,1.6-3.2c0.5-0.7,1-1.3,1.5-1.5c0.5-0.3,1.1-0.4,1.8-0.4
			c1.4,0,2.1,0.6,2.1,1.7c0,0.4-0.1,0.9-0.3,1.4l-2.1,6.2c-0.1,0.2-0.1,0.4-0.1,0.5c0,0.3,0.1,0.4,0.3,0.4c0.4,0,0.8-0.4,1.1-1.3
			l0.4-1.2H583.4z"/>
		<path fill="#FFFFFF" d="M587.2,278.4c0.4,0,0.8-0.1,1.1-0.4c0.3-0.3,0.4-0.7,0.4-1.2c0-0.4-0.1-0.9-0.3-1.4
			c-0.2-0.5-0.5-1.1-0.9-1.7c-0.3-0.5-0.6-0.9-0.7-1.2c-0.1-0.3-0.3-0.6-0.4-0.9c-0.1-0.3-0.2-0.7-0.2-1c0-0.6,0.2-1.2,0.5-1.6
			c0.3-0.5,0.8-0.9,1.4-1.1c0.6-0.3,1.4-0.4,2.3-0.4c1,0,1.9,0.2,2.6,0.6c0.7,0.4,1,1,1,1.9c0,0.3-0.1,0.6-0.2,0.9s-0.3,0.5-0.5,0.7
			c-0.2,0.2-0.5,0.3-0.8,0.3c-0.4,0-0.7-0.2-1-0.5c-0.2-0.3-0.4-0.8-0.4-1.3c0-0.4,0.1-0.8,0.2-1.2c0.1-0.4,0.3-0.6,0.5-0.8
			c-0.1-0.1-0.3-0.1-0.5-0.1c-0.5,0-0.9,0.1-1.1,0.4c-0.2,0.3-0.4,0.7-0.4,1.2c0,0.3,0.1,0.7,0.2,1s0.3,0.7,0.5,1
			c0.2,0.3,0.4,0.6,0.5,0.8c0.5,0.8,0.8,1.4,1,1.9s0.3,1,0.3,1.4c0,0.6-0.2,1.1-0.5,1.6c-0.3,0.5-0.8,0.9-1.4,1.1
			c-0.6,0.3-1.4,0.4-2.3,0.4c-1.1,0-2.1-0.2-2.8-0.6s-1.1-1.1-1.1-2.1c0-0.5,0.1-1,0.4-1.3c0.3-0.4,0.6-0.5,1-0.5
			c0.4,0,0.7,0.2,1,0.5c0.2,0.3,0.4,0.8,0.4,1.3c0,0.3,0,0.5-0.1,0.8c-0.1,0.3-0.1,0.5-0.2,0.7c-0.1,0.2-0.2,0.4-0.3,0.6
			C586.7,278.4,587,278.4,587.2,278.4z"/>
	</g>
</g>
</svg>
